<?xml version="1.0" encoding="UTF-8" standalone="no"?>
<svg
   version="1.0"
   width="2000pt"
   height="2000pt"
   viewBox="0 0 2000 2000"
   preserveAspectRatio="xMidYMid"
   id="svg272"
   xmlns:xlink="http://www.w3.org/1999/xlink"
   xmlns="http://www.w3.org/2000/svg"
   xmlns:svg="http://www.w3.org/2000/svg">
  <defs
     id="defs272">
    <linearGradient
       id="linearGradient781">
      <stop
         style="stop-color:#7ef9ff;stop-opacity:1;"
         offset="0"
         id="stop781" />
      <stop
         style="stop-color:#ffff77;stop-opacity:0.49803922;"
         offset="0.40000001"
         id="stop783" />
      <stop
         style="stop-color:#ff77ff;stop-opacity:0.24705882;"
         offset="0.60000002"
         id="stop784" />
      <stop
         style="stop-color:#8ab8ff;stop-opacity:0.12156863;"
         offset="0.80000001"
         id="stop785" />
      <stop
         style="stop-color:#ffffff;stop-opacity:0.05882353;"
         offset="1"
         id="stop786" />
      <stop
         style="stop-color:#77dd77;stop-opacity:0;"
         offset="1"
         id="stop782" />
    </linearGradient>
    <linearGradient
       xlink:href="#linearGradient781"
       id="linearGradient782"
       x1="-0.41349399"
       y1="563.77466"
       x2="2112.7632"
       y2="1051.1688"
       gradientUnits="userSpaceOnUse"
       gradientTransform="matrix(1,0,0,1.2158385,0,-285.71428)" />
  </defs>
  <g
     transform="matrix(0.1,0,0,-0.1,0,2000)"
     fill="#000000"
     stroke="none"
     id="g272"
     style="fill:#000000;fill-opacity:1">
    <path
       d="m 18700,16093 c -415,-15 -708,-60 -1960,-303 -140,-27 -464,-88 -720,-134 -256,-47 -521,-97 -589,-111 -132,-28 -349,-88 -381,-105 -14,-7 -67,-3 -190,15 -166,25 -271,45 -623,120 -306,64 -397,76 -623,82 -173,5 -231,2 -315,-12 -125,-21 -214,-47 -294,-88 -33,-16 -108,-40 -167,-53 -248,-52 -484,-180 -664,-358 -45,-45 -99,-108 -120,-141 -21,-33 -65,-89 -97,-125 -126,-139 -214,-288 -271,-460 -65,-196 -70,-258 -69,-895 1,-183 4,-239 23,-335 12,-63 21,-119 21,-125 0,-5 -3,-98 -7,-205 l -7,-195 -39,-78 -38,-77 -143,123 c -347,299 -680,531 -1427,995 -1480,919 -2651,1373 -3860,1499 -233,24 -804,24 -1018,0 -307,-35 -630,-99 -720,-143 -93,-46 -135,-126 -134,-261 0,-226 132,-413 318,-453 l 49,-11 -3,-53 c -7,-112 67,-300 168,-423 55,-66 130,-128 198,-162 39,-20 42,-24 35,-49 -13,-46 -7,-223 11,-292 56,-218 250,-334 531,-317 55,4 117,9 138,13 31,6 36,4 32,-9 -8,-20 49,-189 82,-246 79,-136 214,-211 378,-211 54,0 65,-3 86,-26 13,-15 53,-46 89,-71 54,-37 60,-44 35,-39 -197,38 -742,107 -1175,151 -1120,111 -3091,211 -3654,185 -406,-19 -731,-73 -951,-159 -143,-55 -185,-96 -185,-179 0,-84 38,-139 162,-233 43,-33 86,-71 95,-85 15,-24 15,-26 -14,-57 -43,-45 -53,-69 -53,-124 0,-35 8,-62 31,-101 61,-108 271,-290 424,-368 l 73,-38 4,-58 c 7,-93 66,-153 269,-268 183,-104 408,-197 575,-240 l 42,-10 -5,-44 c -9,-73 23,-116 146,-198 204,-136 432,-230 674,-278 l 57,-11 v -64 c 0,-54 4,-69 33,-111 38,-57 121,-116 262,-184 212,-104 413,-152 637,-154 l 148,-1 v -50 c 1,-94 49,-160 182,-245 199,-129 472,-221 731,-245 63,-6 72,-10 110,-47 94,-91 352,-237 507,-287 142,-45 274,-48 374,-6 34,14 37,14 42,-2 24,-80 73,-133 156,-167 163,-68 642,-67 737,2 23,17 24,16 58,-16 83,-78 205,-115 378,-116 117,-1 297,25 319,45 20,18 42,8 64,-29 61,-99 282,-187 498,-199 l 102,-6 6,-51 c 6,-56 27,-90 75,-123 66,-45 251,-93 362,-93 51,0 76,-6 110,-24 72,-40 251,-79 419,-92 l 88,-7 -25,-71 c -86,-244 -151,-598 -163,-881 -6,-138 -15,-228 -29,-290 -39,-173 -54,-329 -55,-565 -1,-143 3,-238 10,-261 9,-29 8,-62 -6,-160 -47,-321 -73,-646 -95,-1175 -14,-331 -11,-472 10,-527 5,-10 -26,-111 -78,-260 -47,-133 -124,-350 -171,-482 -46,-132 -129,-365 -185,-517 -164,-453 -215,-659 -216,-868 0,-95 3,-120 18,-142 27,-39 76,-53 121,-34 l 35,14 7,-31 c 24,-113 131,-165 202,-99 34,32 102,163 190,367 164,378 425,1174 572,1740 22,88 43,165 45,172 3,8 15,7 47,-4 34,-12 54,-13 95,-4 90,18 239,104 370,214 40,34 95,69 122,80 61,22 179,126 371,323 408,421 596,676 750,1020 42,95 51,107 141,193 l 97,91 h 55 c 148,0 300,69 363,165 l 15,23 48,-48 c 84,-84 172,-91 242,-21 74,74 61,142 -37,191 -28,14 -67,39 -88,57 -37,30 -38,33 -32,76 5,32 17,56 44,85 69,74 127,67 167,-21 27,-59 32,-109 20,-214 -6,-53 -5,-73 4,-73 19,0 13,-14 -44,-101 -37,-56 -83,-109 -139,-158 -92,-81 -98,-98 -42,-132 58,-35 138,-22 234,41 34,21 64,35 67,30 24,-39 153,42 232,145 115,152 165,331 142,502 -6,43 -12,104 -14,135 -2,43 -17,87 -59,182 -79,176 -79,169 -12,257 31,41 68,98 83,127 18,37 35,57 57,66 89,38 344,276 492,461 155,192 295,415 378,598 40,90 48,99 118,155 222,177 428,527 518,881 33,131 50,251 65,467 9,115 22,247 30,294 7,47 14,138 14,202 1,64 5,119 10,122 15,10 59,213 71,325 14,142 12,347 -5,596 -21,304 -20,513 4,606 24,95 39,216 51,421 7,133 15,185 39,273 44,154 80,352 88,475 4,75 13,119 28,155 12,28 30,84 40,125 10,41 30,102 45,135 28,60 63,177 95,315 38,158 171,447 272,587 111,155 469,551 507,561 11,3 126,58 255,122 520,256 969,401 1686,545 315,63 1097,195 1335,224 236,30 453,69 469,86 13,12 12,20 -5,54 -16,34 -30,45 -89,72 -153,68 -376,101 -625,92 z m -55,-63 c -4,-7 52,-10 161,-10 92,0 165,-2 163,-4 -2,-2 -65,-9 -139,-15 -152,-13 -452,-57 -490,-72 -27,-10 -21,-10 235,16 172,17 447,28 365,15 -30,-5 -138,-18 -240,-30 -230,-27 -823,-118 -1070,-166 -852,-163 -1692,-422 -2475,-761 l -160,-70 96,96 c 119,119 169,209 177,320 4,60 7,70 26,75 224,63 527,128 1176,255 1183,230 1607,303 1995,345 166,18 188,18 180,6 z m 355,-161 c -47,-11 -301,-55 -565,-99 -1099,-183 -1658,-323 -2225,-560 -120,-50 -180,-67 -180,-50 0,28 -128,-13 -282,-91 -75,-38 -183,-59 -301,-59 -111,0 -105,6 53,57 65,21 106,38 94,40 -11,2 -56,-7 -99,-21 -44,-14 -81,-24 -82,-22 -6,5 359,144 572,218 730,253 1458,429 2202,533 250,34 644,69 838,72 l 60,1 z m -5090,-327 c 69,-12 254,-48 411,-81 317,-67 511,-101 579,-101 38,-1 42,-2 26,-12 -13,-7 -61,-9 -143,-5 -67,2 -123,1 -123,-3 0,-17 117,-34 233,-34 65,-1 114,-2 110,-3 -4,-1 -27,-7 -50,-13 -24,-6 -43,-16 -43,-22 0,-13 101,-4 178,16 33,9 52,10 52,4 0,-24 -33,-135 -50,-167 -20,-39 -98,-117 -195,-196 -69,-56 -115,-102 -115,-116 0,-13 -1,-13 87,24 45,18 90,31 106,29 l 28,-3 -45,-36 c -72,-56 -58,-75 17,-25 57,39 77,48 48,23 -13,-12 -22,-23 -19,-26 2,-2 54,20 116,50 109,53 114,55 197,55 47,0 85,-4 85,-8 0,-4 -41,-28 -92,-52 -102,-50 -238,-164 -219,-183 7,-7 18,-4 33,10 39,36 159,108 248,150 47,22 91,47 99,56 7,9 23,17 34,17 25,0 15,-13 -31,-38 -29,-17 -238,-157 -276,-187 -23,-17 -16,-30 11,-21 10,3 53,26 95,50 91,51 88,41 -13,-64 -40,-41 -73,-80 -74,-85 0,-6 -39,-67 -85,-135 -186,-271 -227,-362 -297,-653 -44,-183 -46,-189 -59,-158 -7,17 -17,31 -22,31 -21,0 -30,-30 -35,-130 -7,-122 -16,-180 -28,-180 -4,0 -9,17 -11,38 -2,25 -8,37 -18,37 -12,0 -16,-23 -21,-120 -6,-111 -41,-344 -70,-475 l -13,-55 -17,100 c -10,55 -18,101 -18,103 -1,1 -8,2 -16,2 -12,0 -15,-20 -15,-117 0,-304 -31,-764 -60,-883 -21,-89 -24,-415 -5,-706 17,-272 17,-655 -1,-714 -6,-20 -10,-14 -20,40 -15,71 -27,91 -46,71 -10,-9 -13,-87 -13,-319 -1,-240 -5,-328 -18,-402 -29,-171 -61,-222 -81,-132 -6,23 -13,42 -17,42 -12,0 -21,-58 -14,-90 8,-36 51,-73 77,-65 15,6 18,1 18,-33 0,-59 -36,-256 -66,-366 -29,-104 -40,-121 -24,-36 11,60 13,117 3,107 -11,-12 -40,-206 -31,-209 6,-2 -2,-34 -17,-71 -31,-76 -41,-82 -26,-16 15,62 14,112 -1,107 -14,-5 -14,-4 -58,-198 -17,-77 -39,-148 -51,-165 -20,-28 -21,-29 -15,-5 23,99 29,151 17,163 -14,14 -31,-6 -31,-38 0,-42 -57,-252 -74,-276 -15,-19 -17,-20 -11,-4 36,103 58,255 36,255 -11,0 -15,-10 -36,-105 -27,-125 -76,-252 -107,-282 l -28,-27 15,50 c 36,116 49,184 37,196 -17,17 -36,-4 -51,-54 -26,-87 -105,-267 -185,-423 -80,-155 -194,-350 -202,-343 -6,7 79,217 87,213 9,-6 74,154 65,162 -9,10 -15,0 -41,-63 -16,-40 -30,-59 -41,-59 -13,0 -29,-29 -61,-115 -53,-142 -152,-343 -193,-390 -26,-31 -24,-23 19,60 70,134 113,245 109,283 l -3,32 -26,-50 c -15,-27 -30,-61 -34,-75 -26,-87 -218,-425 -262,-462 -9,-7 1,13 21,45 52,82 136,256 136,284 0,48 -22,19 -94,-124 -81,-162 -175,-310 -227,-360 l -34,-32 3,74 c 4,64 2,75 -12,75 -20,0 -30,-22 -56,-126 -11,-45 -29,-101 -39,-125 -19,-43 -20,-43 -20,-14 -2,50 -12,75 -32,75 -13,0 -21,-12 -29,-42 -19,-79 -42,-153 -56,-178 -12,-22 -13,-23 -14,-5 -1,13 -6,7 -15,-17 -15,-42 -64,-117 -90,-138 -12,-10 -8,5 13,45 29,59 62,155 62,183 0,34 -25,-1 -59,-84 -21,-50 -49,-111 -64,-136 -25,-44 -98,-118 -116,-118 -5,0 2,26 15,58 28,69 44,215 24,227 -21,13 -39,-18 -60,-104 -29,-116 -57,-166 -134,-238 -36,-35 -66,-68 -66,-73 0,-31 61,-17 120,28 26,20 47,27 82,28 30,0 66,10 97,27 l 50,25 58,-96 c 68,-114 84,-174 86,-322 1,-120 -13,-181 -70,-294 -68,-136 -256,-296 -347,-296 -27,0 -25,3 43,66 183,170 262,359 233,560 -20,133 -83,304 -112,304 -16,0 -11,-40 14,-120 27,-86 44,-184 27,-160 -6,8 -11,24 -11,35 -1,75 -63,165 -113,165 -14,0 -29,-4 -32,-10 -3,-5 3,-10 13,-10 17,0 82,-60 82,-76 0,-2 -13,2 -30,11 -37,19 -77,19 -114,0 -26,-14 -28,-14 -21,3 27,66 3,71 -49,10 -83,-96 -107,-259 -61,-403 14,-42 -37,29 -68,95 -25,53 -32,81 -35,152 l -4,88 40,62 c 63,96 93,186 73,217 -16,26 -36,4 -83,-90 -25,-52 -59,-105 -73,-119 -26,-24 -26,-23 4,22 73,108 111,237 112,372 1,91 -6,129 -24,123 -8,-2 -14,-47 -18,-128 -5,-94 -13,-141 -31,-194 -27,-75 -67,-157 -92,-190 -15,-19 -15,-19 -16,13 0,37 -24,53 -45,31 -7,-8 -23,-45 -35,-84 -55,-170 -167,-398 -236,-481 -18,-22 -14,-8 16,52 39,80 53,150 28,142 -7,-3 -28,-45 -48,-94 -20,-49 -48,-112 -62,-139 -26,-50 -73,-113 -63,-85 3,9 -1,24 -9,35 -22,29 -45,10 -69,-56 -94,-257 -182,-434 -308,-622 -150,-224 -376,-494 -566,-677 -56,-55 -68,-64 -32,-25 121,130 268,314 352,440 25,39 60,89 77,113 17,23 30,48 27,55 -2,7 -19,-10 -38,-37 -19,-27 -53,-72 -76,-100 -23,-28 -128,-160 -235,-293 -106,-133 -194,-240 -196,-238 -2,2 4,17 12,33 17,33 12,62 -9,62 -7,0 -39,-33 -71,-72 -98,-123 -163,-195 -221,-244 l -56,-48 57,74 c 73,94 134,196 142,238 12,57 -14,36 -83,-70 -36,-57 -86,-127 -111,-158 -49,-60 -189,-210 -197,-210 -3,0 17,28 44,61 70,87 115,177 150,304 34,123 35,125 22,125 -5,0 -17,-26 -26,-57 -34,-116 -153,-322 -246,-423 -45,-49 -43,-43 13,42 64,97 148,266 148,299 0,27 -2,30 -16,19 -8,-8 -39,-63 -69,-124 -61,-126 -164,-297 -183,-304 -7,-2 3,25 22,60 39,69 113,242 141,326 13,41 14,57 5,65 -15,16 -22,3 -91,-168 -78,-194 -116,-275 -129,-275 -6,0 -8,10 -5,23 65,277 104,416 121,433 11,11 35,63 54,115 19,52 77,177 129,279 167,324 200,394 210,438 16,76 -7,55 -64,-60 -31,-62 -92,-178 -134,-258 -43,-80 -91,-173 -106,-208 -15,-34 -30,-61 -32,-58 -2,2 10,53 27,112 35,122 66,183 301,599 161,286 184,335 156,335 -21,0 -35,-22 -187,-293 -73,-130 -135,-235 -137,-233 -6,6 95,259 161,403 31,67 56,131 56,142 0,28 -18,36 -40,16 -27,-24 -128,-236 -191,-397 -29,-76 -54,-136 -56,-135 -1,2 20,93 47,202 79,327 92,386 86,392 -22,23 -177,-536 -251,-905 -39,-194 -190,-825 -291,-1212 -128,-495 -327,-1119 -481,-1510 -69,-176 -213,-482 -240,-512 -33,-37 -96,-11 -111,45 -8,29 -3,39 43,102 168,228 342,603 435,938 22,80 7,88 -21,11 -10,-27 -44,-119 -75,-204 -96,-263 -219,-516 -342,-704 -25,-39 -47,-65 -49,-59 -2,6 32,79 77,163 224,423 436,929 625,1495 111,331 221,725 346,1231 75,304 89,405 57,412 -26,5 -39,-35 -124,-371 -304,-1211 -567,-1971 -913,-2642 -119,-231 -154,-285 -186,-285 -14,0 -25,3 -25,6 0,3 20,33 44,67 146,206 270,447 359,697 113,317 206,586 209,604 2,10 -2,21 -8,23 -13,4 -35,-54 -151,-392 -144,-422 -198,-542 -366,-823 -73,-121 -93,-149 -100,-135 -6,13 12,59 61,163 173,362 317,719 371,915 38,144 43,165 34,165 -5,0 -38,-93 -75,-208 -38,-114 -101,-288 -141,-387 -76,-189 -239,-556 -245,-551 -1,2 25,77 59,167 145,385 322,949 304,967 -12,13 -28,-27 -124,-328 -174,-545 -231,-710 -224,-655 12,109 82,345 269,908 108,324 198,586 201,584 3,-4 -44,-171 -65,-226 -3,-8 0,-12 7,-10 14,5 68,136 156,374 61,167 62,170 91,170 28,0 29,1 29,55 0,30 3,62 7,70 15,32 112,607 123,725 3,39 16,112 27,163 18,82 19,117 3,100 -3,-3 -12,-45 -21,-94 -8,-49 -24,-118 -35,-154 -22,-72 -74,-368 -88,-500 -4,-47 -9,-69 -10,-50 -1,44 34,513 55,728 8,89 14,170 12,180 -3,16 -40,-218 -72,-463 -18,-135 -19,-88 -2,140 23,294 29,473 17,455 -6,-8 -11,-35 -12,-60 0,-25 -7,-85 -14,-135 l -14,-90 5,130 c 9,254 68,815 109,1055 9,51 11,88 6,93 -17,17 -38,-1 -49,-40 -9,-31 -10,-20 -6,62 12,238 57,508 135,819 28,111 52,205 52,210 1,6 -5,11 -14,13 -11,3 -25,-16 -47,-64 -17,-37 -31,-59 -31,-48 -1,36 47,326 79,475 17,80 38,179 46,220 9,41 19,78 22,81 4,4 21,10 38,13 l 32,7 -34,-83 c -37,-92 -61,-193 -70,-299 -8,-82 10,-97 20,-17 10,72 61,227 109,331 22,48 41,86 43,84 1,-1 -10,-40 -27,-85 -29,-83 -37,-128 -20,-118 5,3 32,59 61,124 66,149 79,159 153,123 44,-21 70,-26 162,-29 99,-4 119,-1 190,23 187,62 331,192 502,451 7,11 2,-7 -12,-39 -39,-93 -105,-183 -224,-309 -61,-64 -111,-119 -111,-122 0,-18 31,1 105,63 129,109 208,210 275,355 47,98 95,241 109,316 13,73 172,533 220,636 70,148 150,257 323,437 84,88 100,100 160,121 75,27 118,50 199,112 124,94 246,293 224,364 -15,46 -53,12 -109,-96 -42,-81 -117,-173 -193,-238 -61,-51 -169,-119 -183,-114 -5,2 20,26 55,55 87,71 168,172 216,268 44,89 70,198 51,217 -21,21 -38,0 -70,-83 -44,-116 -120,-228 -226,-334 -103,-102 -187,-161 -469,-331 -334,-200 -494,-336 -626,-534 -33,-50 -141,-252 -241,-449 -191,-380 -247,-475 -334,-564 -47,-48 -135,-117 -149,-117 -3,0 28,33 67,73 68,68 186,231 186,256 0,24 -18,7 -80,-81 -84,-117 -169,-205 -249,-257 -85,-55 -109,-53 -33,3 81,60 162,169 140,191 -2,2 -31,-28 -63,-67 -35,-42 -89,-91 -130,-119 -104,-70 -132,-71 -39,-2 83,62 124,105 124,131 0,18 -6,13 -106,-71 -87,-74 -147,-109 -176,-105 -19,2 -13,9 35,36 65,37 187,151 187,176 0,9 -3,16 -6,16 -3,0 -40,-32 -82,-70 -87,-82 -200,-153 -234,-148 -21,3 -18,6 22,32 126,81 239,194 304,307 26,46 34,79 17,79 -5,0 -34,-37 -64,-83 -63,-94 -191,-222 -286,-285 -71,-47 -107,-46 -45,1 129,99 308,316 384,466 36,73 92,230 87,250 -1,9 -33,-47 -70,-123 -91,-188 -179,-317 -306,-449 -146,-151 -172,-171 -217,-162 l -36,6 52,26 c 79,39 173,134 252,253 93,140 227,416 334,685 154,390 221,515 351,655 38,41 79,89 91,107 23,32 29,63 13,63 -5,0 -61,-49 -124,-110 -193,-185 -276,-324 -432,-720 -116,-295 -305,-667 -327,-644 -4,3 -19,-16 -34,-43 -32,-55 -66,-96 -109,-126 l -30,-22 17,25 c 30,43 86,144 90,162 8,44 -22,12 -67,-70 -62,-112 -92,-149 -127,-158 l -27,-6 48,114 c 27,62 46,117 43,122 -8,13 -25,-14 -84,-135 -48,-99 -55,-109 -80,-109 -16,0 -28,5 -28,11 0,6 27,67 60,136 66,139 64,133 50,133 -11,0 -88,-129 -127,-212 -15,-32 -33,-58 -40,-58 -10,0 -12,7 -8,23 10,34 90,201 130,268 19,33 35,62 35,65 0,41 -146,-176 -186,-277 -25,-62 -40,-80 -56,-63 -9,9 81,195 166,343 42,73 75,135 73,138 -7,6 -80,-85 -129,-162 -54,-82 -148,-268 -148,-290 0,-8 -7,-15 -15,-15 -19,0 -20,-4 16,75 51,114 124,235 224,376 91,128 113,170 81,152 -28,-15 -135,-158 -196,-260 -52,-87 -131,-249 -154,-317 -10,-29 -18,-12 -18,34 1,49 16,77 165,300 120,180 192,280 362,500 135,174 150,200 121,200 -22,0 -97,-87 -241,-281 -150,-201 -342,-485 -401,-593 -26,-47 -37,-82 -38,-112 -1,-24 -4,-44 -8,-44 -16,0 -48,56 -48,84 1,42 36,126 111,259 239,429 536,820 998,1312 81,87 127,143 121,149 -11,11 -62,-29 -230,-185 -270,-250 -559,-599 -798,-962 -113,-172 -256,-423 -268,-470 -8,-34 -19,-40 -57,-29 l -28,7 22,29 c 41,52 119,189 119,209 0,33 -22,5 -95,-119 l -68,-116 -46,7 c -25,4 -48,8 -49,10 -10,9 26,127 59,192 41,81 37,93 -10,34 -39,-48 -68,-113 -77,-169 -6,-36 -10,-42 -30,-42 -30,0 -31,18 -4,95 23,67 70,153 111,206 31,39 35,49 19,49 -34,0 -140,-156 -175,-256 -13,-36 -25,-67 -27,-70 -3,-2 -19,1 -36,7 l -31,11 41,81 c 56,113 144,238 234,335 104,112 68,108 -45,-5 -87,-88 -187,-226 -242,-335 -28,-55 -30,-57 -54,-46 -19,9 -24,16 -19,32 20,66 138,223 309,409 65,70 115,131 112,134 -7,7 -132,-105 -233,-209 -81,-82 -175,-202 -207,-263 -21,-39 -22,-39 -25,-13 -5,38 28,104 84,169 211,246 275,314 362,387 136,113 177,162 67,78 -22,-16 -76,-64 -121,-105 -45,-42 -112,-103 -149,-136 -86,-75 -209,-215 -246,-280 -18,-31 -29,-64 -29,-89 0,-33 -2,-37 -15,-26 -27,22 -35,76 -19,128 25,83 196,288 380,457 329,301 618,496 1196,811 125,68 251,139 280,157 29,19 92,55 141,81 51,28 87,54 87,63 0,21 -24,14 -160,-46 -696,-312 -1298,-712 -1652,-1098 -120,-130 -273,-315 -302,-365 -14,-24 -29,-68 -33,-97 l -8,-53 -60,-19 c -33,-11 -78,-18 -100,-17 -51,4 -56,27 -21,104 30,66 30,64 13,64 -23,0 -60,-80 -60,-127 0,-28 -5,-43 -13,-43 -32,0 -29,74 7,157 21,49 19,64 -6,43 -31,-26 -58,-94 -59,-148 -1,-52 -1,-53 -31,-50 -28,3 -30,5 -27,41 5,48 24,96 68,164 44,69 26,78 -26,12 -52,-66 -67,-96 -81,-159 -11,-51 -23,-59 -63,-44 -13,5 -10,17 21,77 48,96 85,148 149,211 29,29 51,56 47,59 -10,10 -87,-49 -141,-108 -48,-52 -122,-181 -122,-211 0,-17 -21,-18 -43,-1 -16,11 -16,15 3,53 31,62 164,218 271,316 52,49 89,88 83,88 -14,0 -115,-71 -183,-129 -74,-63 -171,-178 -209,-248 -24,-45 -32,-54 -37,-40 -4,9 -4,29 -1,43 9,33 191,229 342,368 135,124 164,153 164,167 0,37 -100,-42 -275,-218 -140,-139 -228,-245 -250,-297 -16,-38 -35,-40 -35,-5 0,105 303,426 628,664 76,56 95,75 73,75 -21,0 -195,-125 -301,-216 -245,-210 -357,-331 -407,-441 -24,-53 -27,-55 -35,-33 -43,118 161,335 682,725 293,219 554,374 985,586 250,123 631,296 844,383 116,48 159,76 114,76 -33,0 -451,-145 -578,-200 -333,-145 -688,-345 -1138,-644 -426,-282 -726,-515 -859,-669 -88,-103 -121,-170 -121,-247 1,-54 -1,-59 -24,-64 -35,-9 -43,0 -43,48 0,57 54,164 120,240 70,80 52,86 -21,7 -86,-95 -123,-170 -122,-248 v -62 l -76,-6 c -42,-3 -86,-8 -97,-10 -16,-4 -23,1 -27,17 -6,21 4,83 19,121 3,9 2,17 -3,17 -17,0 -36,-46 -42,-100 -6,-54 -7,-55 -40,-58 -19,-2 -49,-1 -67,3 -30,5 -32,8 -25,33 16,54 72,152 96,168 30,20 32,34 5,34 -10,0 -35,-15 -53,-34 -37,-37 -97,-147 -97,-178 0,-15 -5,-18 -22,-13 -13,4 -27,11 -32,15 -15,15 -9,58 13,88 26,37 160,163 224,211 26,19 47,39 47,44 0,21 -170,-97 -259,-178 -63,-59 -86,-100 -78,-140 4,-24 3,-26 -27,-19 -17,3 -35,9 -39,13 -30,28 113,169 338,333 100,72 191,149 243,203 90,94 105,131 19,49 -28,-28 -142,-118 -252,-199 -221,-165 -345,-279 -366,-338 -9,-25 -19,-37 -29,-34 -20,4 -15,41 11,78 23,32 214,192 459,384 91,71 208,165 260,208 52,43 118,93 145,112 91,60 190,135 179,135 -6,0 -55,-32 -110,-70 -54,-39 -165,-115 -245,-169 -245,-166 -660,-505 -708,-578 -17,-25 -32,-50 -34,-56 -7,-19 -26,4 -33,39 -4,24 0,37 20,61 53,63 711,570 1031,795 686,482 1316,795 1983,988 69,20 95,40 51,40 -32,0 -293,-68 -429,-112 -405,-131 -846,-341 -1275,-606 -125,-78 -432,-283 -539,-360 -48,-35 -169,-117 -267,-183 -183,-122 -374,-263 -509,-373 -162,-134 -192,-157 -197,-152 -7,7 191,239 249,290 53,47 115,90 328,225 143,91 166,109 153,122 -11,11 -90,-36 -320,-187 -172,-113 -248,-185 -380,-360 -93,-122 -107,-134 -169,-134 -33,0 -44,16 -44,65 0,40 68,164 116,210 56,53 52,69 -8,30 -86,-56 -152,-166 -151,-253 v -53 l -31,7 c -74,16 -74,16 -64,80 13,82 61,165 152,261 43,46 76,86 73,89 -17,17 -185,-138 -224,-206 -23,-39 -50,-120 -55,-162 l -3,-26 -55,23 c -50,22 -55,26 -52,52 5,39 55,131 111,200 41,50 218,209 261,233 8,5 12,12 8,16 -9,9 -151,-84 -236,-155 -72,-60 -154,-172 -177,-242 -17,-51 -24,-56 -56,-39 -31,17 -26,95 9,151 45,70 228,227 430,368 50,35 89,68 86,73 -15,24 -247,-124 -404,-259 -120,-102 -179,-178 -187,-242 -3,-23 -8,-41 -11,-41 -11,0 -102,62 -102,70 0,16 60,88 122,146 90,84 212,177 351,269 116,77 134,91 123,102 -11,12 -57,-9 -146,-68 -220,-144 -408,-304 -458,-388 -28,-48 -36,-43 -45,27 -7,55 11,76 171,205 220,177 406,295 685,433 97,49 177,95 177,102 0,17 -15,12 -140,-39 -324,-135 -855,-502 -924,-640 -22,-46 -26,-48 -35,-30 -17,31 -13,88 9,131 26,50 105,116 283,234 476,316 1022,538 1812,735 111,28 484,113 830,190 744,166 935,215 935,242 0,14 -17,11 -320,-61 -135,-32 -387,-89 -560,-125 -873,-183 -1222,-269 -1610,-396 -485,-159 -928,-368 -1248,-591 -170,-118 -232,-198 -232,-302 0,-55 -1,-56 -27,-55 -40,0 -167,24 -182,34 -21,12 -9,140 17,192 26,50 26,53 9,53 -8,0 -27,-23 -42,-52 -23,-42 -29,-65 -29,-120 -1,-37 -3,-68 -5,-68 -2,0 -21,5 -42,12 -32,9 -41,17 -49,47 -14,52 -12,93 6,121 30,45 88,101 147,143 83,58 59,72 -33,18 -149,-89 -205,-184 -165,-283 7,-17 4,-17 -33,-4 -77,27 -84,34 -77,69 21,100 98,209 203,287 91,67 81,84 -17,28 -113,-65 -210,-188 -227,-290 l -6,-37 -44,22 c -69,33 -63,54 54,167 53,52 125,115 160,140 62,45 222,145 245,153 6,2 9,8 5,12 -11,12 -207,-86 -296,-148 -97,-67 -236,-198 -253,-238 l -13,-32 -18,23 c -22,27 -23,58 -2,89 45,64 345,265 519,347 98,46 140,73 115,74 -8,0 -100,-40 -203,-90 -281,-134 -461,-266 -484,-355 l -11,-40 -1,43 c -1,62 21,107 88,171 140,135 350,244 744,386 73,26 56,36 -26,14 -345,-95 -602,-223 -745,-372 -64,-67 -92,-116 -92,-162 0,-36 -17,-31 -30,10 -17,51 17,116 93,176 101,81 474,285 719,395 844,376 1771,582 3175,704 274,24 328,24 184,1 -65,-10 -106,-21 -109,-29 -4,-14 -4,-14 223,9 112,11 201,33 207,51 3,7 45,16 108,22 66,7 105,16 108,24 5,15 -57,16 -343,2 -1428,-68 -2580,-289 -3478,-667 -377,-158 -806,-393 -902,-493 -23,-24 -37,-30 -71,-30 -36,0 -41,3 -37,19 9,36 66,92 146,146 95,64 132,93 125,101 -3,3 -25,-8 -49,-24 -24,-16 -77,-48 -117,-72 -75,-43 -132,-109 -132,-153 0,-18 -6,-19 -95,-15 -52,2 -100,9 -106,15 -18,18 -23,99 -9,133 7,17 33,48 59,70 50,43 49,65 -2,36 -84,-48 -111,-95 -105,-178 l 4,-60 -45,7 c -25,4 -50,9 -55,12 -14,9 2,120 24,163 12,23 55,68 105,110 90,75 107,112 27,59 -158,-107 -191,-149 -200,-254 -2,-36 -7,-65 -11,-65 -21,1 -126,39 -129,48 -7,23 62,135 117,190 49,47 215,162 253,174 6,2 9,9 7,16 -6,17 -191,-76 -262,-133 -68,-54 -121,-122 -144,-187 -10,-27 -21,-48 -26,-48 -24,0 -85,42 -91,62 -20,77 0,111 104,173 106,62 514,267 667,336 79,35 143,67 143,71 0,8 -129,-37 -290,-102 -137,-55 -510,-240 -579,-288 -73,-50 -95,-82 -96,-137 0,-25 -1,-45 -3,-45 -1,0 -21,9 -42,20 -35,18 -40,25 -40,54 0,22 9,45 25,64 43,51 183,133 340,200 140,59 184,82 159,82 -27,0 -415,-165 -460,-195 -52,-36 -94,-96 -94,-136 -1,-23 -1,-23 -15,-5 -38,50 -3,101 133,194 194,133 396,230 649,313 87,29 162,56 167,60 21,18 -6,20 -76,6 -237,-49 -539,-186 -761,-345 -101,-72 -139,-112 -153,-159 l -11,-38 -13,42 c -12,38 -11,48 5,83 35,78 113,135 325,241 467,232 1170,444 1900,573 471,83 1157,149 1669,161 l 216,4 -135,-14 c -74,-8 -241,-26 -370,-40 -472,-51 -1168,-142 -1355,-176 -199,-37 -485,-120 -485,-141 0,-11 13,-10 46,2 56,22 263,70 404,95 330,58 1470,189 2029,234 183,15 248,24 260,35 15,14 61,14 397,6 208,-6 453,-14 544,-19 95,-5 169,-5 174,0 16,14 -10,18 -249,33 -497,33 -709,40 -1210,40 -507,0 -729,-8 -1105,-40 -1029,-87 -2131,-359 -2791,-690 -160,-80 -221,-118 -274,-171 l -40,-41 -85,18 c -127,26 -170,40 -170,52 0,51 104,171 191,221 21,12 39,28 39,35 0,17 -2,16 -72,-19 -80,-40 -172,-132 -189,-187 -7,-23 -15,-42 -19,-42 -8,0 -73,22 -79,26 -2,2 19,31 45,65 86,109 205,196 349,255 18,7 18,8 -6,11 -36,5 -148,-39 -216,-85 -57,-39 -143,-124 -194,-191 -25,-34 -27,-34 -57,-22 -18,8 -32,21 -32,29 0,27 150,164 255,234 55,36 152,92 215,124 130,65 125,62 117,70 -8,9 -97,-22 -196,-68 -166,-76 -391,-246 -421,-318 -7,-17 -17,-30 -23,-30 -7,0 -65,31 -85,46 -2,1 9,26 24,55 18,32 48,67 79,89 90,68 366,195 650,299 193,71 195,72 190,81 -11,17 -288,-70 -495,-154 -231,-95 -340,-154 -408,-222 -39,-40 -64,-74 -68,-93 -8,-36 -7,-36 -45,-14 -43,26 -40,71 8,124 39,43 248,154 484,257 102,44 354,130 432,147 38,8 34,25 -7,25 -56,0 -258,-56 -379,-106 -62,-25 -200,-89 -307,-142 -220,-110 -272,-150 -287,-222 l -8,-43 -33,28 c -121,102 122,256 698,443 850,276 1820,446 2815,493 299,14 941,6 1285,-15 298,-19 343,-20 338,-3 -6,16 -236,50 -488,71 -787,66 -1661,28 -2490,-109 -962,-159 -1994,-477 -2201,-678 l -36,-35 -134,55 c -73,30 -136,57 -139,59 -8,8 20,22 154,74 70,28 149,61 175,74 44,23 258,100 424,153 42,14 77,29 77,33 0,8 -201,-54 -366,-113 -54,-20 -142,-47 -194,-62 -102,-28 -225,-82 -276,-120 l -31,-24 -72,34 c -39,19 -71,37 -71,39 0,24 442,194 585,226 94,21 147,39 117,40 -7,0 -119,-27 -250,-61 -252,-64 -353,-101 -435,-156 l -51,-34 -38,17 c -21,9 -38,20 -38,24 0,15 96,69 165,94 119,43 333,104 480,137 77,17 144,35 149,40 17,15 -23,10 -134,-17 -58,-14 -188,-45 -290,-69 -207,-48 -288,-77 -359,-130 -47,-34 -81,-39 -81,-11 0,21 53,64 110,89 86,38 350,121 515,162 157,39 200,54 155,55 -75,0 -595,-138 -693,-185 -56,-26 -96,-58 -114,-89 -10,-18 -11,-18 -42,0 -17,10 -31,22 -31,27 0,5 17,26 38,46 42,42 186,107 397,177 234,78 470,131 933,210 122,21 222,41 222,46 0,13 -56,10 -227,-12 -511,-65 -968,-186 -1262,-335 -62,-31 -113,-75 -123,-107 -7,-20 -56,17 -75,56 -15,32 -14,36 3,72 12,24 36,49 64,66 116,70 768,231 1304,323 779,132 1447,187 2276,188 855,0 1459,-60 2335,-233 344,-68 358,-70 370,-59 16,16 -10,26 -145,58 -741,176 -1834,291 -2765,291 -1029,0 -1986,-123 -3095,-396 -242,-60 -325,-92 -381,-149 l -36,-35 -94,66 c -125,89 -179,134 -179,149 0,29 88,77 215,117 89,29 122,43 104,46 -68,8 -247,-52 -308,-105 l -43,-36 -31,32 -32,32 35,31 c 19,17 58,41 86,54 97,46 637,174 859,204 91,12 145,29 96,30 -28,0 -480,-77 -676,-116 -230,-45 -358,-97 -400,-160 -13,-20 -19,-23 -31,-13 -19,16 -18,32 7,63 29,37 91,66 254,120 261,85 500,137 790,171 199,23 215,26 215,36 0,14 -159,11 -305,-6 -321,-38 -802,-167 -927,-250 -21,-14 -47,-39 -57,-56 l -19,-31 -16,23 c -9,13 -16,41 -16,62 0,54 48,96 159,140 115,46 201,69 416,111 624,122 1308,174 2110,163 464,-7 594,-14 1205,-63 776,-61 1087,-101 2120,-270 151,-25 310,-48 353,-51 73,-6 77,-5 77,15 0,17 -11,23 -67,36 -122,29 -1085,165 -1733,246 -900,112 -1244,138 -1960,147 -721,9 -1258,-23 -1880,-113 -373,-53 -554,-94 -687,-154 -36,-17 -67,-30 -69,-30 -1,0 -16,20 -33,45 l -31,46 45,19 c 88,38 182,61 424,105 223,40 360,61 539,80 34,4 65,11 68,16 8,13 -2,12 -269,-21 -524,-65 -611,-82 -749,-147 l -78,-36 -28,24 c -15,13 -31,27 -36,31 -16,13 44,67 93,82 167,55 725,124 1016,127 55,0 109,4 120,9 44,18 -20,23 -199,17 -201,-7 -420,-27 -631,-58 -271,-39 -376,-71 -411,-124 -13,-20 -20,-23 -30,-14 -19,16 -18,23 12,59 72,85 231,122 719,168 136,12 89,27 -78,24 -236,-4 -458,-42 -567,-97 -48,-24 -110,-78 -110,-96 0,-22 -19,-6 -30,25 -13,40 -1,77 32,100 31,22 209,79 343,110 151,34 358,63 555,77 563,39 2774,-78 4000,-212 900,-98 1472,-203 2365,-434 529,-137 997,-253 1205,-299 511,-112 996,-181 1540,-217 246,-17 894,-18 990,-1 252,42 416,112 541,229 36,34 49,53 49,74 0,33 -31,48 -59,27 -10,-7 -43,-32 -73,-54 -29,-23 -78,-54 -108,-69 -50,-25 -173,-75 -186,-75 -3,0 32,28 76,62 78,58 124,111 117,133 -9,25 -42,13 -94,-35 -83,-76 -195,-148 -278,-180 -36,-14 -31,-6 18,25 76,50 178,138 193,167 26,50 -12,34 -105,-45 -153,-131 -223,-177 -267,-177 l -39,1 31,17 c 57,32 124,83 134,102 23,43 8,40 -60,-11 -80,-60 -205,-121 -242,-117 -28,3 -24,7 58,60 49,32 110,77 136,100 61,55 168,189 167,208 0,9 -14,-2 -32,-25 -76,-95 -217,-213 -350,-294 -76,-46 -128,-64 -126,-43 0,4 39,32 86,62 181,116 340,301 368,428 11,54 -12,37 -55,-41 -66,-120 -175,-236 -349,-367 l -84,-63 94,109 c 332,385 543,753 649,1132 16,59 30,110 30,115 0,15 -39,6 -44,-10 -5,-16 -4,36 6,362 3,74 1,80 -17,80 -13,0 -22,9 -26,25 -11,43 -10,447 2,589 16,198 16,186 -3,185 -23,-2 -23,3 7,114 60,223 169,418 333,596 57,63 92,108 92,122 0,30 166,187 272,257 197,130 426,211 658,233 110,10 137,29 83,58 -16,9 -22,16 -13,16 8,0 53,7 100,15 127,21 506,14 670,-13 z m -8020,-492 c 886,-50 1745,-291 2750,-772 595,-285 1615,-893 2272,-1354 137,-96 583,-428 616,-459 11,-10 9,-21 -12,-64 l -26,-51 -47,36 c -85,65 -342,179 -360,160 -8,-8 -16,-3 132,-80 128,-67 179,-99 120,-75 -43,17 -93,28 -99,21 -3,-3 25,-23 62,-44 71,-42 132,-94 132,-114 0,-6 -8,-22 -18,-34 l -18,-23 -13,31 c -7,17 -33,50 -57,72 -45,42 -129,88 -140,78 -3,-4 33,-44 80,-90 83,-80 86,-85 86,-128 0,-37 -8,-57 -44,-110 -52,-77 -115,-146 -131,-143 -6,2 -29,-15 -50,-37 -22,-22 -33,-40 -25,-40 8,0 0,-15 -20,-35 -19,-19 -42,-35 -53,-35 -10,0 -55,-27 -98,-60 -63,-47 -97,-65 -162,-84 -143,-42 -166,-41 -59,2 79,32 215,124 278,189 31,32 79,81 106,109 28,28 46,54 41,57 -6,4 -23,-7 -38,-23 -16,-17 -34,-30 -40,-30 -7,0 -45,-31 -86,-68 -41,-37 -91,-80 -111,-96 -58,-44 -292,-154 -371,-175 -68,-18 -82,-18 -227,-5 -85,8 -159,16 -165,17 -5,2 40,7 102,10 225,14 375,53 547,140 91,47 206,138 206,165 0,26 -36,16 -122,-35 -285,-170 -551,-234 -968,-232 -239,0 -269,12 -70,27 238,17 459,60 545,106 38,20 39,21 14,24 -14,2 -79,-11 -145,-27 -202,-52 -344,-72 -554,-79 -169,-6 -210,-4 -298,12 -56,10 -101,20 -100,22 2,1 86,8 188,14 293,17 513,54 764,126 199,58 396,148 396,181 0,26 -30,25 -117,-5 -49,-17 -149,-51 -223,-77 -239,-82 -507,-141 -749,-165 -114,-11 -494,-12 -581,-1 -54,6 -52,7 45,14 358,28 825,106 825,138 0,12 7,13 -196,-20 -266,-44 -385,-59 -624,-81 l -215,-19 -113,28 c -63,16 -116,32 -119,35 -4,3 20,6 53,6 215,0 860,108 1260,210 155,40 184,50 184,61 0,13 -6,12 -173,-25 -294,-67 -580,-112 -892,-140 -253,-23 -503,-35 -560,-26 -50,7 -50,7 -10,9 321,12 494,33 503,60 4,11 -20,12 -144,5 -170,-10 -839,-6 -881,5 -17,5 37,10 142,14 224,9 481,39 682,79 89,17 161,33 159,35 -2,2 -120,-10 -262,-27 -250,-28 -525,-52 -744,-65 -99,-5 -114,-3 -255,33 l -150,39 215,6 c 345,12 602,35 625,58 13,13 -78,11 -290,-6 -345,-27 -642,-38 -698,-24 -89,20 -83,26 35,33 157,9 1246,100 1628,136 521,48 550,52 550,66 0,9 -16,11 -57,8 -32,-2 -154,-9 -270,-15 -191,-9 -215,-9 -229,5 -17,17 -13,17 -249,-5 -55,-5 -233,-14 -394,-20 -162,-5 -297,-12 -300,-16 -4,-3 134,-3 304,-1 l 310,6 -670,-49 c -581,-43 -697,-49 -875,-45 -186,4 -317,20 -337,40 -4,3 144,6 328,6 475,0 859,19 859,43 0,7 -80,8 -262,4 -145,-4 -440,-10 -655,-14 l -393,-6 -77,39 -78,38 205,13 c 198,12 422,31 849,73 298,29 571,41 776,35 140,-4 174,-3 155,6 -39,18 -572,15 -840,-5 -124,-9 -362,-30 -530,-46 -168,-16 -383,-35 -478,-41 -156,-11 -175,-10 -190,4 -21,22 -25,21 218,46 113,12 300,32 415,46 351,41 602,57 996,62 487,7 728,-6 1306,-69 111,-12 205,-19 209,-15 17,16 -19,28 -156,51 -482,82 -917,111 -1520,103 -437,-6 -521,-12 -1055,-72 -533,-60 -675,-62 -780,-10 -28,13 -59,33 -68,43 -16,18 -14,18 56,0 165,-42 388,-35 982,32 193,22 411,45 485,52 205,18 733,15 993,-6 211,-17 255,-16 243,3 -11,17 -237,36 -608,51 -324,14 -550,3 -1014,-49 -500,-57 -596,-64 -809,-65 -149,-1 -206,3 -265,17 -67,15 -148,52 -139,62 2,2 29,-4 59,-13 86,-25 638,-24 863,2 92,11 166,21 164,22 -2,2 -133,-2 -293,-8 -349,-13 -702,-1 -771,27 -40,16 -43,20 -72,106 -16,49 -29,89 -28,89 1,0 83,14 181,30 313,53 527,71 906,77 364,6 575,-3 920,-38 340,-34 781,-104 1142,-180 377,-79 669,-139 679,-139 5,0 9,6 9,14 0,7 -17,18 -37,24 -21,5 -110,31 -197,56 -373,109 -942,223 -1399,281 -378,48 -574,59 -1007,60 -507,0 -693,-15 -1145,-94 -277,-49 -342,-55 -430,-41 -77,12 -174,52 -201,81 -16,18 -15,18 17,9 19,-6 77,-10 130,-10 100,0 1107,52 1354,71 243,17 708,23 845,10 191,-19 476,-57 670,-90 306,-52 518,-74 495,-52 -13,13 -289,56 -515,81 -102,11 -257,31 -345,45 -510,76 -646,78 -1720,16 -802,-46 -906,-47 -971,-13 -37,19 -62,48 -50,59 2,2 21,0 42,-6 115,-30 546,-41 854,-21 137,8 674,38 769,41 20,1 2,5 -39,10 -41,4 -165,3 -275,-2 -614,-26 -776,-31 -930,-26 -300,11 -445,34 -445,71 0,12 5,14 25,6 68,-26 207,-30 768,-24 409,5 577,10 574,18 -3,8 -152,10 -513,7 -510,-3 -741,6 -821,32 -36,11 -38,14 -47,71 -14,88 4,132 69,165 l 49,26 366,7 c 696,14 1242,-13 1650,-82 63,-11 192,-31 285,-44 197,-29 231,-36 545,-111 277,-66 549,-136 823,-211 108,-30 202,-54 207,-54 6,0 10,6 10,14 0,9 -22,21 -57,31 -32,9 -148,43 -258,75 -357,105 -605,169 -1090,279 -349,80 -708,131 -1120,160 -205,14 -35,12 280,-4 428,-21 578,-33 765,-60 277,-39 703,-141 1098,-261 167,-51 212,-60 186,-35 -5,5 -31,16 -59,24 -27,8 -171,52 -320,97 -499,151 -821,217 -1215,249 -376,31 -1149,61 -1800,71 -366,5 -578,11 -601,19 -34,10 -98,66 -88,76 3,2 29,-2 59,-10 30,-8 118,-20 195,-25 148,-12 1776,-39 1858,-32 48,4 60,15 31,26 -9,4 -290,11 -623,17 -1393,23 -1509,29 -1559,85 -13,15 -21,28 -19,30 2,2 24,-5 48,-15 78,-35 231,-43 969,-52 393,-6 751,-12 795,-14 60,-3 72,-2 50,5 -49,16 -599,40 -900,40 -325,0 -743,16 -831,31 -54,9 -172,64 -162,75 3,2 63,0 134,-5 184,-14 563,-22 539,-12 -11,4 -74,11 -140,15 -66,3 -154,11 -195,16 -41,6 -133,14 -204,19 -152,10 -164,17 -173,102 -8,81 7,91 155,100 280,17 920,4 1252,-26 445,-41 701,-93 1795,-367 746,-187 1157,-330 1574,-549 93,-48 121,-58 121,-40 0,19 -167,131 -290,195 -224,116 -506,221 -875,326 -199,56 -1476,377 -1650,415 -119,25 -319,58 -455,75 -301,36 -445,43 -1045,46 -601,4 -691,9 -731,39 -17,12 -13,13 36,10 30,-3 282,-7 560,-10 1311,-13 1928,-94 2713,-356 149,-50 179,-57 161,-40 -32,33 -388,157 -614,215 -620,160 -1375,225 -2597,226 h -332 l -28,26 -28,25 560,-6 c 308,-3 634,-10 725,-15 91,-5 228,-11 305,-14 236,-9 86,11 -273,36 -272,19 -411,23 -830,23 h -502 l -21,44 c -11,24 -19,44 -17,45 8,6 971,-25 1225,-39 260,-14 306,-14 292,0 -19,18 -1078,75 -1410,75 -133,0 -129,-3 -129,98 v 52 l 25,-16 c 25,-17 467,-53 1270,-104 176,-12 439,-32 585,-46 316,-30 437,-39 430,-31 -12,13 -204,35 -960,106 -176,17 -724,58 -1165,87 -162,10 -199,36 -144,98 36,42 92,62 281,100 395,80 798,108 1208,86 z m -490,-1315 c 195,-3 456,-9 580,-13 210,-6 191,-7 -280,-12 l -505,-5 -57,-28 c -70,-34 -92,-30 -156,29 l -47,44 55,-5 c 30,-2 215,-7 410,-10 z m 998,-32 c -26,-2 -71,-2 -100,0 -29,2 -8,3 47,3 55,0 79,-1 53,-3 z m 4707,-3863 c -10,-11 -22,-17 -27,-14 -5,3 -1,12 9,20 27,20 39,17 18,-6 z m -111,-120 c -40,-39 -148,-234 -194,-350 -13,-30 -63,-174 -112,-320 -118,-352 -199,-515 -338,-678 -54,-63 -175,-164 -233,-194 l -42,-21 53,56 c 48,52 66,87 42,87 -6,0 -38,-30 -73,-66 -73,-78 -105,-102 -150,-114 l -32,-9 25,17 c 72,50 122,97 168,159 29,37 52,74 52,81 0,25 -28,11 -54,-28 -37,-56 -134,-151 -198,-194 -68,-46 -95,-47 -36,-1 84,64 187,199 203,268 12,48 -18,31 -55,-30 -49,-81 -143,-196 -196,-239 -25,-20 -46,-35 -49,-33 -2,3 26,37 63,76 37,39 88,106 114,149 77,131 172,363 155,381 -11,10 -14,5 -82,-152 -79,-181 -138,-277 -227,-371 -52,-55 -73,-71 -89,-67 -17,5 -12,13 39,67 92,96 171,226 332,546 82,162 169,330 194,373 41,72 136,208 136,195 0,-3 -19,-37 -42,-74 -47,-78 -128,-259 -128,-289 0,-11 30,34 66,100 86,157 172,286 271,411 91,113 134,146 69,51 -49,-70 -126,-204 -126,-218 0,-20 19,3 133,153 63,84 141,178 172,208 l 57,55 -36,-49 c -71,-94 -205,-336 -187,-336 10,0 91,110 177,239 49,75 167,201 187,201 6,0 -7,-18 -29,-40 z m 1640,-3075 c 51,-120 59,-160 60,-280 0,-84 -6,-129 -23,-190 -24,-85 -75,-192 -116,-240 l -26,-30 25,50 c 52,107 68,174 73,305 l 5,125 -41,125 c -23,69 -56,148 -74,175 l -34,50 46,42 46,41 13,-46 c 7,-26 28,-83 46,-127 z m -745,-509 c 10,-25 8,-34 -14,-71 -26,-45 -77,-90 -135,-120 -32,-17 -200,-76 -200,-71 0,14 55,71 70,72 76,5 223,160 230,244 4,42 1,50 -19,50 -13,0 -29,-21 -54,-67 -20,-38 -59,-93 -87,-123 l -52,-55 38,70 c 21,38 52,106 70,150 29,70 39,84 81,113 l 48,32 6,-97 c 3,-54 11,-111 18,-127 z m 289,-79 c 18,-14 15,-34 -10,-51 -21,-15 -23,-14 -40,21 -10,20 -18,40 -18,45 0,10 50,-1 68,-15 z M 9077,4948 c -3,-8 -6,-5 -6,6 -1,11 2,17 5,13 3,-3 4,-12 1,-19 z m 10,-440 c -2,-13 -4,-3 -4,22 0,25 2,35 4,23 2,-13 2,-33 0,-45 z m 20,-360 c -3,-8 -6,-5 -6,6 -1,11 2,17 5,13 3,-3 4,-12 1,-19 z m -115,-248 c -14,-39 -26,-69 -28,-67 -6,5 38,137 46,137 4,0 -4,-32 -18,-70 z"
       id="path1"
       style="fill:#000000;fill-opacity:1" />
    <path
       d="m 15470,15287 c -55,-29 -63,-47 -21,-47 48,0 103,26 99,47 -5,26 -28,26 -78,0 z"
       id="path2"
       style="fill:#000000;fill-opacity:1" />
    <path
       d="m 16124,15224 c -18,-14 -18,-15 6,-8 14,3 32,10 40,15 12,7 11,8 -6,9 -11,0 -29,-7 -40,-16 z"
       id="path3"
       style="fill:#000000;fill-opacity:1" />
    <path
       d="m 15700,15155 c -31,-12 -32,-14 -10,-14 14,0 36,6 50,14 31,18 7,18 -40,0 z"
       id="path4"
       style="fill:#000000;fill-opacity:1" />
    <path
       d="m 13555,15526 c -11,-8 -17,-18 -13,-22 9,-8 160,-34 206,-34 21,0 32,5 32,14 0,16 -41,31 -105,41 -22,3 -54,8 -70,11 -18,2 -39,-2 -50,-10 z"
       id="path5"
       style="fill:#000000;fill-opacity:1" />
    <path
       d="m 13832,15478 c 5,-15 45,-25 106,-27 50,-1 55,13 11,28 -45,16 -122,15 -117,-1 z"
       id="path6"
       style="fill:#000000;fill-opacity:1" />
    <path
       d="m 13184,15468 c -13,-20 28,-40 70,-33 47,7 56,12 56,31 0,18 -115,20 -126,2 z"
       id="path7"
       style="fill:#000000;fill-opacity:1" />
    <path
       d="m 13487,15434 c -16,-17 -4,-24 40,-24 31,0 44,3 37,10 -13,13 -67,23 -77,14 z"
       id="path8"
       style="fill:#000000;fill-opacity:1" />
    <path
       d="m 12873,15409 c -43,-12 -72,-54 -52,-74 12,-11 24,-11 74,0 33,8 96,18 140,22 60,6 80,12 80,23 0,9 -14,17 -40,21 -83,13 -171,17 -202,8 z"
       id="path9"
       style="fill:#000000;fill-opacity:1" />
    <path
       d="m 13354,15394 c -18,-15 -18,-15 6,-10 14,3 31,6 38,6 6,0 12,5 12,10 0,15 -34,12 -56,-6 z"
       id="path10"
       style="fill:#000000;fill-opacity:1" />
    <path
       d="m 13006,15320 c -68,-22 -85,-35 -69,-51 16,-16 183,36 183,56 0,20 -41,18 -114,-5 z"
       id="path11"
       style="fill:#000000;fill-opacity:1" />
    <path
       d="m 12656,15282 c -49,-17 -77,-44 -63,-59 4,-4 22,-1 40,6 18,7 51,18 75,24 30,7 42,15 42,29 0,23 -28,23 -94,0 z"
       id="path12"
       style="fill:#000000;fill-opacity:1" />
    <path
       d="m 15033,15208 c -24,-11 -31,-28 -13,-28 13,0 70,29 70,35 0,9 -34,4 -57,-7 z"
       id="path13"
       style="fill:#000000;fill-opacity:1" />
    <path
       d="m 12433,15189 c -56,-28 -133,-111 -133,-144 0,-36 23,-31 55,10 39,52 64,73 123,107 28,16 52,34 52,39 0,16 -54,10 -97,-12 z"
       id="path14"
       style="fill:#000000;fill-opacity:1" />
    <path
       d="m 13810,15170 c 0,-6 30,-10 70,-10 40,0 70,4 70,10 0,6 -30,10 -70,10 -40,0 -70,-4 -70,-10 z"
       id="path15"
       style="fill:#000000;fill-opacity:1" />
    <path
       d="m 13411,15134 c -53,-27 -88,-65 -76,-84 9,-14 37,-12 62,5 11,8 46,21 77,29 69,18 76,22 76,46 0,38 -65,40 -139,4 z"
       id="path16"
       style="fill:#000000;fill-opacity:1" />
    <path
       d="m 13837,15128 c -49,-18 -26,-33 44,-29 l 64,3 -24,-19 c -32,-26 -20,-43 33,-43 30,0 56,-9 89,-30 55,-35 57,-35 57,-14 0,9 -14,29 -31,45 -35,33 -32,36 12,13 45,-23 50,-7 9,27 -61,51 -181,73 -253,47 z"
       id="path17"
       style="fill:#000000;fill-opacity:1" />
    <path
       d="m 12455,15069 c -39,-34 -60,-67 -51,-77 7,-6 106,87 106,100 0,16 -20,7 -55,-23 z"
       id="path18"
       style="fill:#000000;fill-opacity:1" />
    <path
       d="m 13472,15053 c -58,-20 -151,-113 -185,-183 -28,-60 -41,-160 -20,-167 6,-2 14,6 18,19 25,80 120,200 210,266 60,44 67,53 53,69 -13,16 -22,15 -76,-4 z"
       id="path19"
       style="fill:#000000;fill-opacity:1" />
    <path
       d="m 13613,14984 c -59,-21 -132,-89 -159,-149 -27,-56 -32,-142 -13,-210 25,-90 138,-153 291,-162 80,-5 92,-4 143,22 98,47 153,155 143,280 -13,152 -118,236 -292,234 -39,0 -90,-7 -113,-15 z m 124,-125 c 53,-14 49,-18 -59,-55 -53,-18 -74,-21 -85,-13 -18,16 -16,36 7,59 23,23 68,26 137,9 z"
       id="path20"
       style="fill:#000000;fill-opacity:1" />
    <path
       d="m 15214,14871 c -23,-10 -45,-24 -49,-31 -4,-7 -4,-11 1,-9 74,31 104,45 104,52 0,11 -11,8 -56,-12 z"
       id="path21"
       style="fill:#000000;fill-opacity:1" />
    <path
       d="m 12870,14825 c -12,-31 -38,-76 -57,-101 -44,-57 -38,-77 10,-35 37,33 97,139 97,173 0,37 -28,16 -50,-37 z"
       id="path22"
       style="fill:#000000;fill-opacity:1" />
    <path
       d="m 12916,14787 c -3,-13 -17,-40 -31,-61 -29,-43 -30,-46 -11,-46 24,0 76,68 76,100 0,36 -25,41 -34,7 z"
       id="path23"
       style="fill:#000000;fill-opacity:1" />
    <path
       d="m 12961,14752 c -8,-18 -11,-35 -8,-38 8,-9 29,35 25,54 -2,12 -8,7 -17,-16 z"
       id="path24"
       style="fill:#000000;fill-opacity:1" />
    <path
       d="m 14078,14708 c -9,-7 -26,-42 -38,-77 -12,-35 -34,-83 -50,-106 -36,-52 -115,-120 -165,-141 -47,-19 -41,-40 11,-37 57,4 135,46 186,101 25,26 51,46 60,44 11,-2 26,13 42,41 14,24 26,47 26,50 0,14 -23,7 -36,-10 -11,-14 -10,-8 1,26 19,56 19,74 -2,100 -15,19 -21,20 -35,9 z"
       id="path25"
       style="fill:#000000;fill-opacity:1" />
    <path
       d="m 11961,14642 c -32,-61 -20,-140 25,-161 49,-22 89,29 44,57 -11,7 -20,23 -20,36 0,73 -27,110 -49,68 z"
       id="path26"
       style="fill:#000000;fill-opacity:1" />
    <path
       d="m 12045,14610 c -18,-29 43,-116 66,-93 8,8 3,24 -16,57 -27,46 -39,54 -50,36 z"
       id="path27"
       style="fill:#000000;fill-opacity:1" />
    <path
       d="m 13027,14415 c -32,-31 -76,-64 -98,-75 -37,-20 -53,-50 -26,-50 8,0 41,14 74,30 69,34 146,111 137,135 -10,25 -26,17 -87,-40 z"
       id="path28"
       style="fill:#000000;fill-opacity:1" />
    <path
       d="m 11804,14385 c -19,-29 -25,-106 -9,-111 15,-6 50,115 37,128 -7,7 -16,2 -28,-17 z"
       id="path29"
       style="fill:#000000;fill-opacity:1" />
    <path
       d="m 13037,14315 c -38,-26 -45,-39 -27,-50 14,-9 80,38 80,58 0,23 -9,22 -53,-8 z"
       id="path30"
       style="fill:#000000;fill-opacity:1" />
    <path
       d="m 11835,14299 c -9,-39 1,-50 15,-15 12,34 13,46 1,46 -5,0 -12,-14 -16,-31 z"
       id="path31"
       style="fill:#000000;fill-opacity:1" />
    <path
       d="m 12099,14317 c -36,-27 -51,-91 -27,-115 7,-7 25,-12 40,-12 15,0 28,-4 28,-9 0,-10 31,-24 38,-16 3,2 -1,11 -8,19 -8,10 -10,29 -5,57 l 7,42 -28,-26 c -36,-34 -48,-25 -29,20 17,40 9,59 -16,40 z"
       id="path32"
       style="fill:#000000;fill-opacity:1" />
    <path
       d="m 13460,14281 c 0,-14 59,-60 84,-67 13,-3 40,-4 62,-2 31,2 39,7 39,23 0,17 -6,20 -45,17 -30,-2 -58,4 -85,18 -43,22 -55,25 -55,11 z"
       id="path33"
       style="fill:#000000;fill-opacity:1" />
    <path
       d="m 14240,14240 c -26,-37 -40,-38 -40,-4 0,40 -25,23 -28,-20 -3,-40 11,-66 35,-66 25,0 73,59 73,91 0,37 -13,37 -40,-1 z"
       id="path34"
       style="fill:#000000;fill-opacity:1" />
    <path
       d="m 14762,14181 c -20,-64 -16,-91 12,-91 13,0 34,8 47,18 13,10 33,22 44,26 16,7 17,9 5,14 -8,3 -21,12 -27,21 -11,14 -15,13 -34,-9 l -21,-25 5,43 c 7,55 -15,57 -31,3 z"
       id="path35"
       style="fill:#000000;fill-opacity:1" />
    <path
       d="m 11800,14173 c -26,-57 -49,-133 -55,-185 -8,-63 9,-138 30,-138 12,0 15,16 15,78 0,42 9,115 20,162 11,47 20,91 20,98 0,21 -16,13 -30,-15 z"
       id="path36"
       style="fill:#000000;fill-opacity:1" />
    <path
       d="m 14300,14191 c 0,-16 28,-20 47,-6 17,13 16,14 -14,15 -18,0 -33,-4 -33,-9 z"
       id="path37"
       style="fill:#000000;fill-opacity:1" />
    <path
       d="m 11839,14123 c -5,-14 -8,-60 -7,-102 2,-60 6,-76 19,-79 14,-3 16,11 15,103 -1,106 -8,127 -27,78 z"
       id="path38"
       style="fill:#000000;fill-opacity:1" />
    <path
       d="m 13997,14144 c -4,-4 -7,-28 -7,-54 0,-36 5,-52 23,-68 43,-40 127,-18 127,33 0,32 -17,41 -39,21 -10,-9 -25,-16 -34,-16 -20,0 -49,42 -45,66 3,18 -13,29 -25,18 z"
       id="path39"
       style="fill:#000000;fill-opacity:1" />
    <path
       d="m 13595,14133 c -41,-9 -49,-13 -38,-24 14,-14 93,0 93,17 0,14 -16,16 -55,7 z"
       id="path40"
       style="fill:#000000;fill-opacity:1" />
    <path
       d="m 11900,14060 c 0,-40 4,-70 10,-70 6,0 10,30 10,70 0,40 -4,70 -10,70 -6,0 -10,-30 -10,-70 z"
       id="path41"
       style="fill:#000000;fill-opacity:1" />
    <path
       d="m 14153,13997 c -33,-11 -46,-37 -19,-37 29,0 66,20 66,35 0,17 -1,17 -47,2 z"
       id="path42"
       style="fill:#000000;fill-opacity:1" />
    <path
       d="m 14609,13908 c -29,-57 -38,-158 -15,-177 24,-20 30,-8 37,72 3,40 10,89 14,110 10,51 -9,48 -36,-5 z"
       id="path43"
       style="fill:#000000;fill-opacity:1" />
    <path
       d="m 14730,13840 c 0,-60 4,-110 9,-110 12,0 17,54 13,143 -6,116 -22,92 -22,-33 z"
       id="path44"
       style="fill:#000000;fill-opacity:1" />
    <path
       d="m 14666,13884 c -3,-9 -6,-38 -6,-66 0,-42 3,-49 18,-46 9,2 17,11 16,21 0,9 -1,37 -2,62 -2,45 -14,59 -26,29 z"
       id="path45"
       style="fill:#000000;fill-opacity:1" />
    <path
       d="m 12227,13832 c -25,-27 -23,-98 3,-112 27,-14 55,-5 80,27 43,55 11,87 -36,36 l -26,-28 6,48 c 6,50 -1,58 -27,29 z"
       id="path46"
       style="fill:#000000;fill-opacity:1" />
    <path
       d="m 12357,13833 c -12,-12 -7,-60 8,-73 22,-18 38,-3 21,21 -7,11 -12,29 -9,40 5,18 -7,26 -20,12 z"
       id="path47"
       style="fill:#000000;fill-opacity:1" />
    <path
       d="m 11745,13767 c -11,-37 -17,-261 -7,-276 19,-27 32,1 34,72 1,48 3,58 5,30 3,-31 9,-43 20,-43 14,0 15,10 10,68 -4,37 -7,82 -7,100 0,44 -18,40 -23,-5 -3,-32 -4,-29 -5,14 -2,56 -16,77 -27,40 z"
       id="path48"
       style="fill:#000000;fill-opacity:1" />
    <path
       d="m 11829,13765 c -7,-14 5,-172 13,-160 3,6 3,46 0,90 -4,44 -9,76 -13,70 z"
       id="path49"
       style="fill:#000000;fill-opacity:1" />
    <path
       d="m 14267,13754 c -3,-3 -3,-12 -1,-19 9,-23 -14,-53 -46,-60 -38,-8 -29,-25 14,-25 42,0 66,26 66,73 0,34 -15,49 -33,31 z"
       id="path50"
       style="fill:#000000;fill-opacity:1" />
    <path
       d="m 12162,13588 c -7,-7 -12,-31 -12,-55 0,-79 67,-109 129,-57 38,31 43,74 9,74 -12,0 -32,-9 -44,-21 -29,-27 -41,-19 -49,31 -7,42 -13,48 -33,28 z"
       id="path51"
       style="fill:#000000;fill-opacity:1" />
    <path
       d="m 11830,13504 c -17,-43 -14,-144 3,-162 24,-23 67,-8 67,23 0,14 -4,25 -9,25 -5,0 -13,30 -17,67 -10,72 -28,91 -44,47 z"
       id="path52"
       style="fill:#000000;fill-opacity:1" />
    <path
       d="m 14033,13478 c -4,-7 -14,-26 -23,-43 -8,-16 -27,-36 -43,-43 -32,-15 -27,-32 9,-32 36,0 84,51 84,89 0,33 -14,48 -27,29 z"
       id="path53"
       style="fill:#000000;fill-opacity:1" />
    <path
       d="m 11900,13469 c 0,-18 33,-68 48,-74 25,-9 24,1 -4,44 -27,40 -44,52 -44,30 z"
       id="path54"
       style="fill:#000000;fill-opacity:1" />
    <path
       d="m 13882,13421 c -21,-38 -84,-101 -132,-133 -22,-14 -23,-17 -7,-23 26,-11 126,43 159,86 16,19 31,52 35,72 5,32 3,37 -14,37 -12,0 -27,-14 -41,-39 z"
       id="path55"
       style="fill:#000000;fill-opacity:1" />
    <path
       d="m 14193,13418 c -6,-7 -13,-21 -16,-31 -5,-13 -13,-16 -32,-11 -21,5 -25,3 -25,-15 0,-31 45,-46 77,-26 26,18 47,61 39,82 -7,16 -31,17 -43,1 z"
       id="path56"
       style="fill:#000000;fill-opacity:1" />
    <path
       d="m 14549,13408 c -17,-31 -18,-210 -2,-215 32,-11 67,152 44,210 -13,33 -26,34 -42,5 z"
       id="path57"
       style="fill:#000000;fill-opacity:1" />
    <path
       d="m 12403,13400 c -33,-20 -44,-40 -22,-40 17,0 79,40 79,51 0,15 -23,10 -57,-11 z"
       id="path58"
       style="fill:#000000;fill-opacity:1" />
    <path
       d="m 13517,13333 c -14,-13 -6,-61 13,-78 33,-30 92,-1 70,35 -7,11 -11,11 -24,1 -20,-17 -36,-6 -36,25 0,23 -10,31 -23,17 z"
       id="path59"
       style="fill:#000000;fill-opacity:1" />
    <path
       d="m 12186,13254 c -13,-19 -15,-29 -7,-37 14,-14 67,35 57,52 -11,18 -30,12 -50,-15 z"
       id="path60"
       style="fill:#000000;fill-opacity:1" />
    <path
       d="m 13374,13205 c -8,-31 12,-82 37,-95 34,-19 94,-12 117,13 45,47 14,101 -33,57 -30,-29 -56,-23 -75,17 -18,39 -37,42 -46,8 z"
       id="path61"
       style="fill:#000000;fill-opacity:1" />
    <path
       d="m 14437,13223 c -12,-12 -7,-83 8,-119 10,-25 20,-34 32,-32 15,3 18,13 16,54 -3,80 -29,125 -56,97 z"
       id="path62"
       style="fill:#000000;fill-opacity:1" />
    <path
       d="m 12027,13190 c -27,-82 6,-150 73,-150 39,0 78,28 90,65 20,60 -13,75 -62,28 -27,-26 -28,-26 -48,-8 -11,10 -20,23 -20,30 0,6 -6,20 -14,31 -12,16 -15,16 -19,4 z"
       id="path63"
       style="fill:#000000;fill-opacity:1" />
    <path
       d="m 14142,13170 c -7,-12 -24,-26 -38,-32 -21,-10 -29,-8 -55,11 -31,23 -59,22 -59,-2 0,-15 -50,-65 -51,-51 0,5 -1,24 -2,43 -1,19 -7,36 -14,38 -14,5 -28,-75 -18,-106 10,-32 55,-27 90,9 22,23 32,27 46,20 35,-19 79,-11 111,20 28,29 34,60 13,67 -6,2 -16,-6 -23,-17 z"
       id="path64"
       style="fill:#000000;fill-opacity:1" />
    <path
       d="m 12362,13018 c -29,-29 5,-78 53,-78 28,0 85,37 85,55 0,19 -9,19 -34,0 -25,-19 -86,-20 -86,-2 0,7 5,18 12,25 9,9 9,12 -3,12 -8,0 -20,-5 -27,-12 z"
       id="path65"
       style="fill:#000000;fill-opacity:1" />
    <path
       d="m 12610,12950 c -23,-23 -28,-98 -8,-118 19,-19 54,-14 71,11 12,19 22,22 50,19 28,-3 41,1 61,22 41,40 27,65 -18,31 -29,-22 -54,-19 -58,8 -5,34 -31,26 -50,-15 -10,-21 -21,-38 -24,-38 -8,0 0,58 11,83 10,23 -10,22 -35,-3 z"
       id="path66"
       style="fill:#000000;fill-opacity:1" />
    <path
       d="m 13866,12867 c -3,-19 -12,-42 -20,-52 -12,-16 -16,-17 -30,-6 -9,8 -16,28 -16,47 0,35 -13,46 -24,18 -20,-53 7,-104 57,-104 33,0 57,34 64,90 4,31 2,40 -10,40 -9,0 -17,-13 -21,-33 z"
       id="path67"
       style="fill:#000000;fill-opacity:1" />
    <path
       d="m 12101,12831 c -26,-49 -71,-87 -123,-103 -36,-11 -42,-10 -55,8 -9,11 -12,31 -9,51 2,18 1,35 -4,38 -14,9 -31,-31 -33,-77 -3,-78 77,-111 169,-69 94,43 167,191 94,191 -13,0 -27,-14 -39,-39 z"
       id="path68"
       style="fill:#000000;fill-opacity:1" />
    <path
       d="m 14114,12797 c -3,-8 -6,-33 -7,-56 -2,-50 15,-68 56,-58 28,8 73,87 63,112 -10,26 -34,16 -46,-19 -6,-19 -18,-40 -26,-46 -12,-11 -14,-5 -14,34 0,43 -15,62 -26,33 z"
       id="path69"
       style="fill:#000000;fill-opacity:1" />
    <path
       d="m 12296,12778 c -19,-27 -21,-79 -4,-96 21,-21 56,-14 79,17 18,25 26,28 58,24 30,-4 43,0 69,22 18,15 32,33 32,41 0,19 -7,18 -46,-7 -33,-20 -74,-19 -74,2 0,24 -39,6 -56,-26 -25,-46 -37,-44 -29,5 8,45 -5,53 -29,18 z"
       id="path70"
       style="fill:#000000;fill-opacity:1" />
    <path
       d="m 12152,12713 c -34,-36 -50,-59 -43,-66 20,-20 121,74 121,112 0,23 -27,7 -78,-46 z"
       id="path71"
       style="fill:#000000;fill-opacity:1" />
    <path
       d="m 14252,12688 c -7,-7 -12,-16 -12,-20 0,-15 15,-8 28,12 13,22 3,27 -16,8 z"
       id="path72"
       style="fill:#000000;fill-opacity:1" />
    <path
       d="m 12758,12584 c -25,-26 -53,-32 -102,-23 -14,3 -25,-7 -40,-35 -24,-45 -46,-58 -46,-27 0,12 -6,21 -14,21 -38,0 -30,-66 8,-76 36,-9 64,4 81,37 13,24 22,29 53,29 53,0 111,43 112,83 0,25 -21,21 -52,-9 z"
       id="path73"
       style="fill:#000000;fill-opacity:1" />
    <path
       d="m 2506,12501 c -6,-9 36,-12 419,-36 328,-21 793,-31 780,-17 -13,14 -218,29 -560,41 -483,18 -634,21 -639,12 z"
       id="path74"
       style="fill:#000000;fill-opacity:1" />
    <path
       d="m 14062,12498 c -7,-7 -12,-31 -12,-53 0,-48 22,-75 62,-75 24,0 68,36 68,57 0,8 8,8 30,0 22,-8 33,-8 41,0 10,10 7,14 -12,22 -13,5 -34,19 -46,30 -31,30 -41,26 -53,-20 -14,-52 -43,-51 -48,1 -4,42 -14,54 -30,38 z"
       id="path75"
       style="fill:#000000;fill-opacity:1" />
    <path
       d="m 11696,12441 c -30,-67 -32,-81 -12,-81 16,0 76,98 76,124 0,9 -8,16 -19,16 -13,0 -26,-18 -45,-59 z"
       id="path76"
       style="fill:#000000;fill-opacity:1" />
    <path
       d="m 12263,12470 c -10,-18 -26,-42 -36,-54 -18,-21 -18,-21 -14,22 4,30 1,42 -8,42 -7,0 -16,-7 -19,-16 -10,-26 -7,-92 5,-99 30,-19 106,53 112,106 3,35 -21,34 -40,-1 z"
       id="path77"
       style="fill:#000000;fill-opacity:1" />
    <path
       d="m 1990,12450 c -10,-7 6,-10 55,-10 49,0 65,3 55,10 -8,5 -33,10 -55,10 -22,0 -47,-5 -55,-10 z"
       id="path78"
       style="fill:#000000;fill-opacity:1" />
    <path
       d="m 12325,12420 c -30,-30 -35,-40 -21,-40 19,0 76,52 76,69 0,20 -15,12 -55,-29 z"
       id="path79"
       style="fill:#000000;fill-opacity:1" />
    <path
       d="m 11895,12414 c -13,-14 -27,-40 -31,-57 -5,-25 -2,-34 16,-49 13,-11 29,-17 37,-14 8,3 18,-8 27,-29 10,-22 24,-37 40,-41 36,-9 76,3 76,22 0,12 -6,15 -24,10 -42,-10 -62,22 -56,92 2,31 -27,40 -46,13 -8,-11 -19,-21 -24,-21 -12,0 8,56 26,71 8,6 14,15 14,20 0,18 -32,8 -55,-17 z"
       id="path80"
       style="fill:#000000;fill-opacity:1" />
    <path
       d="m 11746,12356 c -27,-47 -32,-66 -16,-66 10,0 60,81 60,98 0,25 -19,10 -44,-32 z"
       id="path81"
       style="fill:#000000;fill-opacity:1" />
    <path
       d="m 4523,12383 c 9,-2 25,-2 35,0 9,3 1,5 -18,5 -19,0 -27,-2 -17,-5 z"
       id="path82"
       style="fill:#000000;fill-opacity:1" />
    <path
       d="m 14346,12351 c -10,-15 -39,-300 -32,-316 23,-61 76,56 76,168 0,99 -25,180 -44,148 z"
       id="path83"
       style="fill:#000000;fill-opacity:1" />
    <path
       d="m 12472,12195 c -50,-53 -80,-58 -111,-17 l -21,27 -20,-25 c -10,-14 -29,-37 -40,-52 -37,-48 -65,-32 -61,34 1,21 -3,38 -8,38 -15,0 -31,-35 -31,-67 0,-74 69,-97 126,-42 29,28 34,30 69,20 65,-18 132,27 150,102 10,38 -4,34 -53,-18 z"
       id="path84"
       style="fill:#000000;fill-opacity:1" />
    <path
       d="m 3075,12213 c -95,-7 -221,-26 -235,-35 -10,-6 1,-7 35,-4 158,17 277,16 610,-3 660,-38 1688,-91 1777,-91 68,0 88,3 88,14 0,19 -27,21 -790,61 -1234,65 -1349,69 -1485,58 z"
       id="path85"
       style="fill:#000000;fill-opacity:1" />
    <path
       d="m 2416,12189 c -65,-10 -121,-20 -124,-23 -20,-21 259,12 297,34 24,14 -33,10 -173,-11 z"
       id="path86"
       style="fill:#000000;fill-opacity:1" />
    <path
       d="m 6970,12126 c 0,-12 546,-166 588,-166 34,0 26,16 -16,33 -53,21 -273,80 -417,111 -66,15 -128,28 -137,30 -10,2 -18,-1 -18,-8 z"
       id="path87"
       style="fill:#000000;fill-opacity:1" />
    <path
       d="m 11536,12124 c -4,-10 -1,-14 6,-12 15,5 23,28 10,28 -5,0 -13,-7 -16,-16 z"
       id="path88"
       style="fill:#000000;fill-opacity:1" />
    <path
       d="m 2549,12004 c -64,-7 -204,-27 -310,-44 -107,-16 -225,-35 -264,-41 -38,-6 -77,-15 -85,-20 -23,-13 -3,-11 152,15 79,14 256,36 393,50 290,30 315,34 315,46 0,13 -56,11 -201,-6 z"
       id="path89"
       style="fill:#000000;fill-opacity:1" />
    <path
       d="m 14101,11958 c -4,-13 -10,-80 -13,-151 -4,-99 -2,-130 9,-138 19,-16 36,1 63,63 28,66 26,172 -6,215 -27,36 -42,39 -53,11 z"
       id="path90"
       style="fill:#000000;fill-opacity:1" />
    <path
       d="m 11870,11950 c -7,-13 -7,-20 -1,-20 6,0 15,9 21,20 7,13 7,20 1,20 -6,0 -15,-9 -21,-20 z"
       id="path91"
       style="fill:#000000;fill-opacity:1" />
    <path
       d="m 7750,11910 c 0,-5 6,-10 14,-10 8,0 18,5 21,10 3,6 -3,10 -14,10 -12,0 -21,-4 -21,-10 z"
       id="path92"
       style="fill:#000000;fill-opacity:1" />
    <path
       d="m 7310,11875 c 0,-16 10,-19 123,-34 95,-13 147,-14 147,-2 0,13 -23,20 -124,36 -117,19 -146,19 -146,0 z"
       id="path93"
       style="fill:#000000;fill-opacity:1" />
    <path
       d="m 11942,11867 c -25,-27 -28,-37 -9,-37 16,0 47,32 47,48 0,19 -14,14 -38,-11 z"
       id="path94"
       style="fill:#000000;fill-opacity:1" />
    <path
       d="m 1620,11869 c -138,-23 -276,-52 -285,-61 -7,-7 1,-9 25,-5 40,6 289,51 365,65 l 50,10 h -50 c -27,0 -75,-4 -105,-9 z"
       id="path95"
       style="fill:#000000;fill-opacity:1" />
    <path
       d="m 14290,11870 c 0,-36 23,-140 31,-140 19,0 2,121 -20,143 -8,8 -11,7 -11,-3 z"
       id="path96"
       style="fill:#000000;fill-opacity:1" />
    <path
       d="m 1960,11805 c -168,-30 -393,-65 -500,-79 -246,-33 -320,-55 -377,-113 -24,-23 -43,-52 -43,-63 0,-29 14,-25 44,14 14,19 45,44 69,55 70,34 366,94 912,186 148,24 270,47 273,50 13,13 -97,-2 -378,-50 z"
       id="path97"
       style="fill:#000000;fill-opacity:1" />
    <path
       d="m 4725,11854 c -752,-33 -1248,-72 -1402,-111 -84,-21 -72,-33 19,-17 151,26 771,62 1496,89 471,17 743,19 952,5 297,-19 375,-21 360,-12 -8,5 -49,12 -90,16 -147,14 -1180,37 -1335,30 z"
       id="path98"
       style="fill:#000000;fill-opacity:1" />
    <path
       d="m 11596,11806 c -14,-25 -40,-55 -58,-67 -18,-13 -26,-25 -19,-27 27,-9 100,65 116,116 11,37 -12,25 -39,-22 z"
       id="path99"
       style="fill:#000000;fill-opacity:1" />
    <path
       d="m 11785,11839 c -11,-17 1,-21 15,-4 8,9 8,15 2,15 -6,0 -14,-5 -17,-11 z"
       id="path100"
       style="fill:#000000;fill-opacity:1" />
    <path
       d="m 7940,11832 c 0,-20 45,-43 155,-77 226,-70 429,-114 400,-86 -13,12 -469,160 -517,168 -24,3 -38,2 -38,-5 z"
       id="path101"
       style="fill:#000000;fill-opacity:1" />
    <path
       d="m 8330,11782 c 0,-6 21,-14 48,-17 26,-4 80,-15 121,-26 70,-19 102,-18 71,1 -39,24 -240,59 -240,42 z"
       id="path102"
       style="fill:#000000;fill-opacity:1" />
    <path
       d="m 7835,11630 c -9,-15 32,-27 147,-44 171,-26 278,-24 278,4 0,15 -29,20 -203,35 -202,18 -214,18 -222,5 z"
       id="path103"
       style="fill:#000000;fill-opacity:1" />
    <path
       d="m 8641,11636 c 10,-11 141,-44 296,-76 428,-86 1161,-145 1065,-86 -4,2 -97,12 -207,21 -279,22 -499,49 -790,95 -280,44 -373,56 -364,46 z"
       id="path104"
       style="fill:#000000;fill-opacity:1" />
    <path
       d="m 12014,11573 c -90,-57 -186,-105 -236,-117 -19,-4 -28,-13 -28,-26 0,-24 -3,-24 101,-4 161,30 315,131 292,192 -9,23 -38,12 -129,-45 z"
       id="path105"
       style="fill:#000000;fill-opacity:1" />
    <path
       d="m 6140,11579 c -616,-34 -1412,-105 -1800,-160 -252,-35 -570,-127 -570,-164 0,-10 21,-5 75,16 147,56 294,86 605,123 447,53 1142,110 1735,141 399,21 475,28 475,45 0,12 -306,11 -520,-1 z"
       id="path106"
       style="fill:#000000;fill-opacity:1" />
    <path
       d="m 3795,11554 c -171,-27 -403,-71 -617,-116 -157,-33 -197,-50 -56,-24 45,9 267,47 492,85 225,39 411,73 414,76 11,11 -89,2 -233,-21 z"
       id="path107"
       style="fill:#000000;fill-opacity:1" />
    <path
       d="m 6892,11571 c -8,-5 20,-10 70,-14 118,-10 278,-9 278,2 0,17 -322,29 -348,12 z"
       id="path108"
       style="fill:#000000;fill-opacity:1" />
    <path
       d="m 13994,11555 c -10,-24 6,-129 17,-118 14,14 23,77 15,107 -7,29 -24,34 -32,11 z"
       id="path109"
       style="fill:#000000;fill-opacity:1" />
    <path
       d="m 7853,11523 c -24,-2 -43,-8 -43,-13 0,-9 153,-19 350,-23 106,-2 125,0 125,13 0,10 -15,17 -45,22 -47,7 -313,7 -387,1 z"
       id="path110"
       style="fill:#000000;fill-opacity:1" />
    <path
       d="m 2400,11493 c -36,-9 -59,-18 -52,-20 16,-6 143,15 162,27 23,15 -34,11 -110,-7 z"
       id="path111"
       style="fill:#000000;fill-opacity:1" />
    <path
       d="m 9278,11443 c -26,-6 -22,-23 5,-23 12,0 101,-7 197,-15 220,-18 313,-19 308,-3 -7,19 -49,26 -210,38 -151,10 -268,12 -300,3 z"
       id="path112"
       style="fill:#000000;fill-opacity:1" />
    <path
       d="m 14200,11398 c 0,-36 25,-109 35,-106 11,3 10,7 -6,81 -11,49 -29,64 -29,25 z"
       id="path113"
       style="fill:#000000;fill-opacity:1" />
    <path
       d="m 9900,11388 c -14,-6 -20,-12 -13,-15 13,-5 123,15 123,23 0,8 -86,2 -110,-8 z"
       id="path114"
       style="fill:#000000;fill-opacity:1" />
    <path
       d="m 10585,11351 c -7,-13 -4,-14 100,-40 187,-45 425,-61 493,-32 38,16 44,48 10,55 -13,3 -142,7 -288,10 -146,2 -275,7 -286,11 -13,4 -25,2 -29,-4 z"
       id="path115"
       style="fill:#000000;fill-opacity:1" />
    <path
       d="m 14334,11314 c 3,-16 8,-46 12,-67 9,-53 24,-56 23,-5 -1,56 -11,90 -28,96 -10,3 -12,-3 -7,-24 z"
       id="path116"
       style="fill:#000000;fill-opacity:1" />
    <path
       d="m 11350,11275 c -25,-8 -71,-19 -102,-25 -46,-9 -58,-15 -58,-30 0,-28 91,-45 167,-31 69,13 108,39 108,72 0,20 -5,24 -35,26 -19,1 -55,-5 -80,-12 z"
       id="path117"
       style="fill:#000000;fill-opacity:1" />
    <path
       d="m 14094,11258 c 3,-18 8,-63 12,-100 5,-47 11,-68 20,-68 10,0 14,14 14,49 0,70 -20,151 -38,151 -11,0 -13,-8 -8,-32 z"
       id="path118"
       style="fill:#000000;fill-opacity:1" />
    <path
       d="m 11447,11158 c -50,-22 -58,-44 -15,-41 40,2 98,31 98,47 0,21 -24,19 -83,-6 z"
       id="path119"
       style="fill:#000000;fill-opacity:1" />
    <path
       d="m 14290,11113 c 1,-37 5,-125 9,-195 8,-134 20,-169 49,-146 31,26 -10,394 -46,406 -9,3 -12,-15 -12,-65 z"
       id="path120"
       style="fill:#000000;fill-opacity:1" />
    <path
       d="m 7290,11029 c -154,-18 -380,-52 -525,-80 -212,-42 -446,-99 -440,-109 3,-5 31,-2 63,6 207,49 525,101 851,139 123,14 228,28 233,31 4,3 6,10 3,15 -7,11 -79,10 -185,-2 z"
       id="path121"
       style="fill:#000000;fill-opacity:1" />
    <path
       d="m 9845,11029 c -12,-19 5,-23 22,-6 16,16 16,17 1,17 -9,0 -20,-5 -23,-11 z"
       id="path122"
       style="fill:#000000;fill-opacity:1" />
    <path
       d="m 9581,10934 c -145,-49 -255,-100 -247,-113 7,-11 95,14 251,69 135,47 175,66 175,80 0,19 -46,10 -179,-36 z"
       id="path123"
       style="fill:#000000;fill-opacity:1" />
    <path
       d="m 10815,10909 c -44,-34 -144,-104 -222,-156 -123,-82 -161,-113 -138,-113 11,0 132,64 195,103 133,84 280,198 280,219 0,22 -44,2 -115,-53 z"
       id="path124"
       style="fill:#000000;fill-opacity:1" />
    <path
       d="m 9189,10940 c -21,-17 -22,-19 -6,-20 23,0 57,18 57,30 0,16 -26,11 -51,-10 z"
       id="path125"
       style="fill:#000000;fill-opacity:1" />
    <path
       d="m 4060,10924 c -41,-13 -133,-40 -204,-59 -71,-20 -177,-55 -237,-80 -120,-49 -253,-114 -247,-120 4,-4 361,127 518,190 36,14 108,37 160,51 52,14 99,30 105,35 15,15 -15,10 -95,-17 z"
       id="path126"
       style="fill:#000000;fill-opacity:1" />
    <path
       d="m 8905,10899 c -121,-26 -285,-77 -285,-89 0,-14 -6,-14 190,26 218,46 280,62 280,74 0,16 -86,10 -185,-11 z"
       id="path127"
       style="fill:#000000;fill-opacity:1" />
    <path
       d="m 10798,10806 c -30,-24 -80,-62 -111,-84 -32,-22 -53,-43 -48,-47 20,-12 201,107 222,146 18,35 -10,28 -63,-15 z"
       id="path128"
       style="fill:#000000;fill-opacity:1" />
    <path
       d="m 4385,10789 c -66,-23 -132,-48 -147,-55 -31,-16 -39,-41 -10,-29 23,10 286,105 289,105 2,0 3,5 3,10 0,15 -4,14 -135,-31 z"
       id="path129"
       style="fill:#000000;fill-opacity:1" />
    <path
       d="m 14170,10578 c 0,-151 5,-198 20,-198 14,0 19,29 26,159 7,135 -2,191 -32,191 -11,0 -14,-30 -14,-152 z"
       id="path130"
       style="fill:#000000;fill-opacity:1" />
    <path
       d="m 9043,10668 c -33,-11 -45,-28 -19,-28 23,0 76,22 76,31 0,11 -15,10 -57,-3 z"
       id="path131"
       style="fill:#000000;fill-opacity:1" />
    <path
       d="m 14088,10647 c -5,-10 -8,-33 -7,-50 0,-31 1,-31 10,-7 5,13 9,36 7,50 -3,21 -4,22 -10,7 z"
       id="path132"
       style="fill:#000000;fill-opacity:1" />
    <path
       d="m 11722,10620 c -26,-34 -27,-40 -8,-40 14,0 46,41 46,60 0,18 -16,10 -38,-20 z"
       id="path133"
       style="fill:#000000;fill-opacity:1" />
    <path
       d="m 4085,10625 c -124,-44 -329,-132 -333,-142 -2,-8 20,-4 65,11 147,51 313,124 313,137 0,5 -1,9 -2,9 -2,-1 -21,-7 -43,-15 z"
       id="path134"
       style="fill:#000000;fill-opacity:1" />
    <path
       d="m 8642,10561 c -108,-47 -342,-178 -342,-193 0,-4 55,20 123,52 67,32 172,79 232,104 128,54 138,59 143,74 8,24 -45,11 -156,-37 z"
       id="path135"
       style="fill:#000000;fill-opacity:1" />
    <path
       d="m 6019,10585 c -224,-35 -464,-121 -644,-230 -69,-42 -70,-43 -63,-51 3,-3 34,9 68,26 181,92 428,174 654,219 77,15 142,33 144,39 5,15 -46,14 -159,-3 z"
       id="path136"
       style="fill:#000000;fill-opacity:1" />
    <path
       d="m 9650,10569 c -62,-34 -81,-49 -61,-49 21,0 141,60 141,71 0,16 -23,10 -80,-22 z"
       id="path137"
       style="fill:#000000;fill-opacity:1" />
    <path
       d="m 10018,10488 c -127,-61 -168,-86 -168,-100 0,-10 4,-18 9,-18 10,0 312,125 354,146 15,9 27,23 27,34 0,36 -49,22 -222,-62 z"
       id="path138"
       style="fill:#000000;fill-opacity:1" />
    <path
       d="m 2923,10538 c -32,-36 -55,-76 -51,-89 3,-10 88,91 88,106 0,12 -18,4 -37,-17 z"
       id="path139"
       style="fill:#000000;fill-opacity:1" />
    <path
       d="m 11463,10528 c -6,-7 -28,-47 -49,-88 -46,-88 -171,-224 -263,-285 -70,-46 -83,-75 -23,-50 127,53 258,177 330,312 23,44 42,90 42,102 0,23 -22,28 -37,9 z"
       id="path140"
       style="fill:#000000;fill-opacity:1" />
    <path
       d="m 10405,10516 c -107,-34 -346,-157 -448,-229 -94,-68 -213,-197 -181,-197 3,0 32,23 63,52 112,102 235,174 554,322 46,21 77,41 75,48 -6,17 -18,18 -63,4 z"
       id="path141"
       style="fill:#000000;fill-opacity:1" />
    <path
       d="m 9360,10451 c -134,-44 -420,-179 -606,-287 -121,-70 -277,-174 -271,-180 3,-3 75,33 160,80 225,123 355,187 555,271 233,99 262,113 262,125 0,15 -38,11 -100,-9 z"
       id="path142"
       style="fill:#000000;fill-opacity:1" />
    <path
       d="m 11260,10415 c -29,-30 -51,-58 -47,-62 8,-7 117,95 117,109 0,18 -18,5 -70,-47 z"
       id="path143"
       style="fill:#000000;fill-opacity:1" />
    <path
       d="m 11446,10361 c -31,-54 -56,-105 -56,-113 2,-37 140,157 140,196 0,40 -32,8 -84,-83 z"
       id="path144"
       style="fill:#000000;fill-opacity:1" />
    <path
       d="m 6790,10425 c -25,-7 -36,-13 -25,-13 11,0 38,5 60,13 52,17 24,17 -35,0 z"
       id="path145"
       style="fill:#000000;fill-opacity:1" />
    <path
       d="m 6718,10403 c 7,-3 16,-2 19,1 4,3 -2,6 -13,5 -11,0 -14,-3 -6,-6 z"
       id="path146"
       style="fill:#000000;fill-opacity:1" />
    <path
       d="m 6570,10369 c -222,-61 -597,-200 -855,-316 -183,-83 -485,-259 -485,-282 0,-5 62,25 138,65 211,115 538,278 658,329 88,38 485,175 644,222 78,24 -2,9 -100,-18 z"
       id="path147"
       style="fill:#000000;fill-opacity:1" />
    <path
       d="m 10553,10299 c -151,-79 -416,-226 -438,-243 -55,-42 33,-5 285,122 185,92 276,143 278,155 5,28 -20,21 -125,-34 z"
       id="path148"
       style="fill:#000000;fill-opacity:1" />
    <path
       d="m 11755,10238 c -66,-84 -79,-112 -48,-106 22,4 133,147 133,171 0,32 -20,17 -85,-65 z"
       id="path149"
       style="fill:#000000;fill-opacity:1" />
    <path
       d="m 13890,10290 c 0,-16 5,-30 10,-30 6,0 10,14 10,30 0,17 -4,30 -10,30 -5,0 -10,-13 -10,-30 z"
       id="path150"
       style="fill:#000000;fill-opacity:1" />
    <path
       d="m 4515,10256 c -63,-25 -139,-66 -132,-72 2,-2 51,18 108,46 111,53 121,63 24,26 z"
       id="path151"
       style="fill:#000000;fill-opacity:1" />
    <path
       d="m 14058,10073 c 4,-163 6,-173 30,-149 14,14 17,36 17,119 0,102 -15,167 -39,167 -8,0 -11,-38 -8,-137 z"
       id="path152"
       style="fill:#000000;fill-opacity:1" />
    <path
       d="m 6460,10144 c -63,-29 -119,-55 -125,-58 -5,-2 -8,-6 -5,-9 6,-6 202,72 238,94 21,13 30,30 15,28 -5,0 -60,-25 -123,-55 z"
       id="path153"
       style="fill:#000000;fill-opacity:1" />
    <path
       d="m 14217,10184 c -3,-3 -4,-29 -1,-58 9,-93 15,-117 26,-110 7,5 9,33 5,82 -5,71 -16,100 -30,86 z"
       id="path154"
       style="fill:#000000;fill-opacity:1" />
    <path
       d="m 11747,10126 c -21,-29 -61,-75 -88,-102 -44,-44 -61,-74 -41,-74 16,0 132,113 161,157 57,86 28,104 -32,19 z"
       id="path155"
       style="fill:#000000;fill-opacity:1" />
    <path
       d="m 5018,10143 c -32,-14 -58,-30 -58,-34 0,-5 2,-9 5,-9 8,0 135,62 135,66 0,10 -30,1 -82,-23 z"
       id="path156"
       style="fill:#000000;fill-opacity:1" />
    <path
       d="m 13927,10083 c -2,-5 -1,-35 4,-68 4,-35 3,-95 -3,-143 -12,-86 -6,-110 18,-77 48,65 43,295 -7,295 -4,0 -10,-3 -12,-7 z"
       id="path157"
       style="fill:#000000;fill-opacity:1" />
    <path
       d="m 11893,10058 c -5,-7 -24,-38 -41,-68 -35,-63 -169,-220 -188,-220 -13,0 -26,-25 -17,-34 4,-3 20,-6 36,-6 42,0 123,63 182,142 57,76 77,119 73,161 -3,34 -28,47 -45,25 z"
       id="path158"
       style="fill:#000000;fill-opacity:1" />
    <path
       d="m 10341,10029 c -24,-17 -40,-33 -38,-36 7,-6 57,28 77,52 19,23 8,18 -39,-16 z"
       id="path159"
       style="fill:#000000;fill-opacity:1" />
    <path
       d="m 11693,9964 c -50,-52 -87,-97 -81,-100 14,-9 116,74 155,125 31,40 43,72 26,70 -5,-1 -49,-44 -100,-95 z"
       id="path160"
       style="fill:#000000;fill-opacity:1" />
    <path
       d="m 10004,9995 c -7,-18 3,-35 22,-35 8,0 14,10 14,25 0,27 -27,35 -36,10 z"
       id="path161"
       style="fill:#000000;fill-opacity:1" />
    <path
       d="m 9054,9852 c -267,-166 -428,-277 -501,-346 -35,-32 -62,-61 -59,-63 2,-2 49,31 104,74 56,43 217,148 359,232 269,160 323,196 323,212 0,24 -51,0 -226,-109 z"
       id="path162"
       style="fill:#000000;fill-opacity:1" />
    <path
       d="m 10139,9930 c -120,-79 -264,-228 -356,-367 -52,-80 -62,-100 -103,-203 -25,-64 -8,-65 24,-1 48,94 168,261 247,345 44,47 124,118 176,158 53,40 98,79 101,86 7,23 -43,13 -89,-18 z"
       id="path163"
       style="fill:#000000;fill-opacity:1" />
    <path
       d="m 11461,9894 c -13,-9 -65,-34 -117,-55 -52,-21 -104,-44 -117,-50 -32,-16 -107,-91 -107,-106 0,-18 20,-16 42,4 10,9 21,13 24,10 8,-7 -52,-115 -111,-202 -25,-35 -40,-67 -36,-70 13,-7 114,120 175,221 29,49 61,91 70,92 23,5 16,-9 -58,-111 -56,-78 -65,-97 -46,-97 14,0 116,126 151,186 26,46 54,72 65,61 6,-5 -43,-95 -67,-126 -13,-16 -16,-27 -9,-29 20,-7 100,116 100,153 0,12 12,28 30,38 16,10 39,31 50,47 33,46 8,67 -39,34 z"
       id="path164"
       style="fill:#000000;fill-opacity:1" />
    <path
       d="m 7318,9840 c -92,-62 -135,-97 -128,-104 6,-5 180,111 210,140 32,31 -12,12 -82,-36 z"
       id="path165"
       style="fill:#000000;fill-opacity:1" />
    <path
       d="m 11865,9823 c -54,-65 -61,-83 -38,-90 13,-5 123,124 123,144 0,30 -33,9 -85,-54 z"
       id="path166"
       style="fill:#000000;fill-opacity:1" />
    <path
       d="m 10144,9814 c -27,-14 -73,-49 -103,-77 -59,-58 -211,-237 -211,-250 0,-16 70,46 159,142 50,54 120,118 155,142 36,24 66,50 66,57 0,17 -11,15 -66,-14 z"
       id="path167"
       style="fill:#000000;fill-opacity:1" />
    <path
       d="m 5915,9769 c -35,-11 -82,-45 -73,-54 3,-3 32,7 64,23 58,29 63,46 9,31 z"
       id="path168"
       style="fill:#000000;fill-opacity:1" />
    <path
       d="m 6762,9703 c -23,-15 -42,-31 -42,-36 0,-4 6,-5 13,-1 70,43 98,64 86,64 -8,0 -34,-12 -57,-27 z"
       id="path169"
       style="fill:#000000;fill-opacity:1" />
    <path
       d="m 7867,9663 c -20,-14 -37,-30 -37,-35 0,-11 25,4 65,37 40,33 20,32 -28,-2 z"
       id="path170"
       style="fill:#000000;fill-opacity:1" />
    <path
       d="m 8459,9673 c -13,-16 -12,-17 4,-4 16,13 21,21 13,21 -2,0 -10,-8 -17,-17 z"
       id="path171"
       style="fill:#000000;fill-opacity:1" />
    <path
       d="m 11496,9606 c -20,-24 -59,-61 -88,-83 -36,-26 -47,-39 -36,-41 44,-9 178,103 178,148 0,31 -14,24 -54,-24 z"
       id="path172"
       style="fill:#000000;fill-opacity:1" />
    <path
       d="m 7534,9626 c -10,-8 -15,-18 -11,-22 4,-4 15,0 24,9 22,21 12,31 -13,13 z"
       id="path173"
       style="fill:#000000;fill-opacity:1" />
    <path
       d="m 8269,9558 c -70,-49 -274,-246 -265,-255 2,-3 60,42 128,99 68,57 151,123 186,147 34,24 62,48 62,52 0,22 -43,5 -111,-43 z"
       id="path174"
       style="fill:#000000;fill-opacity:1" />
    <path
       d="m 11548,9573 c -18,-21 -51,-55 -72,-76 -22,-20 -36,-40 -33,-44 20,-19 157,100 157,137 0,30 -15,25 -52,-17 z"
       id="path175"
       style="fill:#000000;fill-opacity:1" />
    <path
       d="m 11016,9585 c -34,-34 -113,-251 -146,-403 -34,-152 -21,-142 39,28 31,91 76,209 99,262 23,53 42,101 42,107 0,18 -18,21 -34,6 z"
       id="path176"
       style="fill:#000000;fill-opacity:1" />
    <path
       d="m 7383,9508 c -101,-86 -213,-191 -213,-200 0,-5 30,14 68,43 95,74 202,169 202,180 0,17 -19,9 -57,-23 z"
       id="path177"
       style="fill:#000000;fill-opacity:1" />
    <path
       d="m 11620,9475 c -13,-14 -19,-25 -13,-25 5,0 20,11 33,25 13,14 19,25 13,25 -5,0 -20,-11 -33,-25 z"
       id="path178"
       style="fill:#000000;fill-opacity:1" />
    <path
       d="m 13834,9378 c 0,-72 -7,-146 -19,-204 -20,-101 -17,-127 17,-122 69,10 99,231 52,387 -10,36 -20,51 -33,51 -15,0 -17,-11 -17,-112 z"
       id="path179"
       style="fill:#000000;fill-opacity:1" />
    <path
       d="m 9161,9402 c -33,-42 -37,-52 -21,-52 12,0 65,78 58,86 -3,3 -20,-13 -37,-34 z"
       id="path180"
       style="fill:#000000;fill-opacity:1" />
    <path
       d="m 14096,9378 c -3,-13 -7,-39 -11,-59 -3,-20 -17,-65 -31,-99 -26,-65 -25,-82 4,-64 43,27 89,229 55,241 -7,3 -14,-6 -17,-19 z"
       id="path181"
       style="fill:#000000;fill-opacity:1" />
    <path
       d="m 11870,9351 c 0,-16 48,-67 55,-59 4,3 -3,20 -16,37 -23,31 -39,40 -39,22 z"
       id="path182"
       style="fill:#000000;fill-opacity:1" />
    <path
       d="m 13986,9339 c -2,-8 -7,-50 -10,-94 -3,-45 -8,-89 -12,-98 -10,-28 23,-20 43,9 24,37 24,157 0,181 -13,14 -17,14 -21,2 z"
       id="path183"
       style="fill:#000000;fill-opacity:1" />
    <path
       d="m 11766,9278 c -3,-7 -7,-26 -11,-43 -10,-47 -36,-95 -51,-95 -8,0 -14,15 -16,38 l -3,37 -19,-27 c -35,-52 7,-114 61,-89 49,22 100,191 58,191 -9,0 -17,-6 -19,-12 z"
       id="path184"
       style="fill:#000000;fill-opacity:1" />
    <path
       d="m 11475,9202 c -15,-23 -28,-60 -32,-90 l -6,-52 h 33 c 18,0 47,9 65,20 38,23 81,99 72,124 -10,25 -21,18 -59,-39 -36,-54 -76,-75 -63,-33 4,12 13,38 21,56 17,42 17,46 5,50 -5,2 -21,-14 -36,-36 z"
       id="path185"
       style="fill:#000000;fill-opacity:1" />
    <path
       d="m 13635,9149 c -10,-30 0,-33 13,-4 6,14 7,25 2,25 -5,0 -12,-9 -15,-21 z"
       id="path186"
       style="fill:#000000;fill-opacity:1" />
    <path
       d="m 10947,9123 c -3,-5 -28,-86 -56,-181 -49,-167 -140,-429 -161,-464 -8,-14 -7,-18 4,-18 25,0 134,264 200,483 45,150 51,187 32,187 -8,0 -17,-3 -19,-7 z"
       id="path187"
       style="fill:#000000;fill-opacity:1" />
    <path
       d="m 11033,9118 c -6,-7 -20,-51 -32,-97 -11,-46 -32,-108 -45,-137 -14,-30 -21,-56 -16,-59 9,-6 48,58 75,120 39,94 52,215 18,173 z"
       id="path188"
       style="fill:#000000;fill-opacity:1" />
    <path
       d="m 11089,9043 c -23,-57 -37,-123 -28,-129 10,-6 10,-7 37,89 20,65 12,94 -9,40 z"
       id="path189"
       style="fill:#000000;fill-opacity:1" />
    <path
       d="m 13626,8908 c -13,-39 -36,-181 -31,-187 18,-17 69,116 63,165 -3,29 -25,44 -32,22 z"
       id="path190"
       style="fill:#000000;fill-opacity:1" />
    <path
       d="m 13277,8871 c -18,-31 -22,-51 -9,-51 8,0 42,57 42,71 0,18 -16,8 -33,-20 z"
       id="path191"
       style="fill:#000000;fill-opacity:1" />
    <path
       d="m 6482,8878 c -28,-36 -66,-128 -52,-128 5,0 26,32 45,70 19,39 31,70 26,70 -5,0 -13,-6 -19,-12 z"
       id="path192"
       style="fill:#000000;fill-opacity:1" />
    <path
       d="m 13403,8832 c -7,-4 -19,-43 -27,-86 -9,-42 -27,-111 -41,-153 -14,-41 -22,-79 -19,-84 29,-47 108,89 134,229 15,82 -5,121 -47,94 z"
       id="path193"
       style="fill:#000000;fill-opacity:1" />
    <path
       d="m 10735,8798 c -2,-7 -13,-47 -24,-88 -11,-41 -39,-129 -61,-195 -45,-135 -43,-125 -31,-125 23,0 141,322 141,386 0,33 -16,47 -25,22 z"
       id="path194"
       style="fill:#000000;fill-opacity:1" />
    <path
       d="m 13672,8757 c -25,-58 -27,-71 -11,-61 13,7 48,82 49,102 0,27 -16,9 -38,-41 z"
       id="path195"
       style="fill:#000000;fill-opacity:1" />
    <path
       d="m 13176,8768 c -9,-12 -16,-27 -16,-33 0,-5 -11,-23 -25,-40 -23,-29 -24,-29 -25,-7 0,29 -18,64 -29,58 -4,-3 -9,-27 -10,-54 -3,-89 51,-96 107,-14 34,50 46,102 25,109 -6,2 -18,-6 -27,-19 z"
       id="path196"
       style="fill:#000000;fill-opacity:1" />
    <path
       d="m 13431,8581 c -28,-55 -51,-106 -51,-115 0,-27 29,-18 50,17 63,100 95,197 67,197 -9,0 -35,-39 -66,-99 z"
       id="path197"
       style="fill:#000000;fill-opacity:1" />
    <path
       d="m 13496,8400 c -37,-41 -43,-55 -27,-65 13,-7 81,66 81,88 0,27 -14,21 -54,-23 z"
       id="path198"
       style="fill:#000000;fill-opacity:1" />
    <path
       d="m 13316,8231 c -65,-65 -136,-110 -198,-125 -26,-6 -28,-4 -28,25 0,26 -3,30 -22,27 -33,-4 -48,-67 -24,-102 52,-81 306,34 369,166 19,40 11,78 -16,78 -7,0 -43,-31 -81,-69 z"
       id="path199"
       style="fill:#000000;fill-opacity:1" />
    <path
       d="m 10676,8045 c -11,-54 -59,-102 -122,-121 -37,-11 -61,-25 -79,-47 -20,-26 -28,-30 -42,-21 -10,6 -24,25 -32,42 -20,43 -36,40 -59,-10 -10,-24 -26,-49 -35,-56 -15,-13 -17,-9 -23,27 -10,63 -29,44 -32,-32 -2,-50 0,-67 10,-67 22,0 76,37 94,65 14,21 18,23 28,11 16,-22 58,-35 83,-25 12,4 29,19 39,33 10,17 34,31 65,41 92,27 139,81 139,159 0,48 -25,49 -34,1 z"
       id="path200"
       style="fill:#000000;fill-opacity:1" />
    <path
       d="m 9625,7910 c -22,-43 -30,-116 -15,-135 17,-21 54,-19 75,5 18,20 18,20 41,-14 27,-39 78,-60 120,-50 42,10 84,36 84,52 0,11 -7,12 -27,7 -75,-19 -104,-18 -128,5 -12,12 -28,41 -35,66 -16,55 -41,59 -58,10 -7,-19 -20,-40 -29,-47 -14,-13 -15,-9 -10,36 3,28 9,60 12,73 11,33 -12,27 -30,-8 z"
       id="path201"
       style="fill:#000000;fill-opacity:1" />
    <path
       d="m 13022,7898 c -5,-7 -19,-32 -30,-55 -12,-22 -44,-71 -72,-107 -54,-70 -60,-86 -33,-86 65,0 207,182 188,241 -7,21 -37,25 -53,7 z"
       id="path202"
       style="fill:#000000;fill-opacity:1" />
    <path
       d="m 10072,7850 c -18,-17 -43,-30 -57,-30 -16,0 -25,-6 -25,-15 0,-10 10,-15 34,-15 39,0 86,38 86,70 0,25 2,25 -38,-10 z"
       id="path203"
       style="fill:#000000;fill-opacity:1" />
    <path
       d="m 13102,7818 c -78,-115 -94,-158 -58,-158 17,0 116,168 116,195 0,3 -7,5 -15,5 -8,0 -27,-19 -43,-42 z"
       id="path204"
       style="fill:#000000;fill-opacity:1" />
    <path
       d="m 10510,7675 c 0,-8 -15,-24 -32,-36 -26,-15 -43,-18 -75,-14 -35,5 -43,3 -43,-9 0,-17 -57,-86 -71,-86 -5,0 -12,14 -15,30 -8,36 -30,40 -36,5 -17,-88 88,-100 138,-15 15,24 25,30 52,30 39,0 71,14 94,44 22,26 23,66 3,66 -8,0 -15,-7 -15,-15 z"
       id="path205"
       style="fill:#000000;fill-opacity:1" />
    <path
       d="m 9635,7497 c -21,-50 -20,-150 1,-168 13,-11 20,-11 41,1 25,14 28,13 63,-22 32,-33 44,-38 82,-38 31,0 54,7 72,21 29,23 26,45 -4,29 -10,-5 -35,-10 -55,-10 -51,0 -91,41 -100,103 -9,60 -30,61 -54,5 -17,-42 -18,-42 -24,-16 -4,15 -3,47 2,70 13,57 -3,74 -24,25 z"
       id="path206"
       style="fill:#000000;fill-opacity:1" />
    <path
       d="m 12337,7463 c -10,-9 -9,-23 1,-23 5,0 17,7 28,15 19,14 19,14 -2,15 -11,0 -24,-3 -27,-7 z"
       id="path207"
       style="fill:#000000;fill-opacity:1" />
    <path
       d="m 12249,7428 c -6,-13 -23,-39 -38,-58 l -26,-35 -5,38 c -6,46 -22,49 -33,6 -16,-60 16,-105 58,-81 26,14 85,104 85,129 0,30 -26,30 -41,1 z"
       id="path208"
       style="fill:#000000;fill-opacity:1" />
    <path
       d="m 12592,7423 c -16,-31 -53,-165 -48,-170 21,-21 76,96 76,160 0,31 -15,36 -28,10 z"
       id="path209"
       style="fill:#000000;fill-opacity:1" />
    <path
       d="m 9455,7366 c -41,-97 -47,-305 -11,-374 35,-68 103,-61 132,15 21,55 9,75 -30,49 -15,-9 -26,-22 -26,-28 0,-8 -3,-9 -10,-2 -18,18 -33,172 -24,262 4,48 8,91 9,96 0,5 -6,11 -13,14 -7,2 -19,-12 -27,-32 z"
       id="path210"
       style="fill:#000000;fill-opacity:1" />
    <path
       d="m 12337,7376 c -8,-8 -22,-45 -31,-83 -9,-37 -28,-92 -42,-121 -41,-84 -11,-113 45,-44 56,66 98,215 71,247 -16,19 -25,19 -43,1 z"
       id="path211"
       style="fill:#000000;fill-opacity:1" />
    <path
       d="m 12425,7255 c -28,-86 -28,-102 -1,-92 18,7 58,113 54,145 -6,52 -26,32 -53,-53 z"
       id="path212"
       style="fill:#000000;fill-opacity:1" />
    <path
       d="m 9709,7063 c -23,-59 12,-133 63,-133 48,0 118,67 118,114 0,26 -14,19 -64,-30 -45,-46 -47,-46 -66,-29 -13,12 -20,31 -20,56 0,47 -17,59 -31,22 z"
       id="path213"
       style="fill:#000000;fill-opacity:1" />
    <path
       d="m 12025,6950 c -7,-11 -24,-193 -19,-199 7,-8 13,5 29,64 23,91 17,179 -10,135 z"
       id="path214"
       style="fill:#000000;fill-opacity:1" />
    <path
       d="m 11847,6835 c 5,-73 2,-105 -16,-168 -25,-91 -25,-97 -7,-97 7,0 22,17 32,38 26,51 27,230 2,282 -16,35 -16,35 -11,-55 z"
       id="path215"
       style="fill:#000000;fill-opacity:1" />
    <path
       d="m 11707,6893 c -4,-3 -7,-22 -7,-42 0,-20 -9,-72 -21,-116 -34,-132 -34,-137 -13,-133 27,5 50,60 69,164 13,70 14,97 6,113 -12,22 -23,26 -34,14 z"
       id="path216"
       style="fill:#000000;fill-opacity:1" />
    <path
       d="m 9255,6790 c -27,-51 -15,-150 18,-150 15,0 57,63 60,92 3,30 -32,38 -40,9 -3,-12 -10,-21 -15,-21 -5,0 -7,8 -4,18 22,81 12,111 -19,52 z"
       id="path217"
       style="fill:#000000;fill-opacity:1" />
    <path
       d="m 11600,6685 c -24,-39 -18,-63 7,-30 26,36 33,54 24,59 -5,4 -19,-10 -31,-29 z"
       id="path218"
       style="fill:#000000;fill-opacity:1" />
    <path
       d="m 9564,6664 c -8,-57 0,-150 16,-186 27,-59 76,-42 116,39 25,51 29,103 8,110 -6,2 -21,-23 -33,-56 -12,-32 -28,-64 -35,-70 -21,-17 -39,47 -39,137 0,51 -4,72 -13,72 -8,0 -16,-19 -20,-46 z"
       id="path219"
       style="fill:#000000;fill-opacity:1" />
    <path
       d="m 9439,6634 c -33,-79 -41,-130 -38,-242 5,-119 19,-157 64,-168 58,-14 132,50 142,124 8,60 -12,62 -62,6 -59,-67 -68,-56 -72,88 -3,79 0,130 11,168 8,30 12,58 10,62 -13,20 -37,4 -55,-38 z"
       id="path220"
       style="fill:#000000;fill-opacity:1" />
    <path
       d="m 11570,6509 c -7,-11 -18,-42 -25,-67 -8,-26 -46,-97 -85,-157 -38,-61 -70,-115 -70,-122 0,-27 23,-22 66,13 81,66 173,226 174,300 0,51 -39,73 -60,33 z"
       id="path221"
       style="fill:#000000;fill-opacity:1" />
    <path
       d="m 11567,6253 c -11,-10 -8,-43 3,-43 6,0 10,11 10,25 0,26 -2,29 -13,18 z"
       id="path222"
       style="fill:#000000;fill-opacity:1" />
    <path
       d="m 10216,6020 c -38,-59 -41,-78 -13,-67 17,6 77,95 77,114 0,29 -27,9 -64,-47 z"
       id="path223"
       style="fill:#000000;fill-opacity:1" />
    <path
       d="m 11262,5967 c -6,-6 -20,-36 -31,-64 -20,-52 -80,-174 -100,-203 -7,-10 -8,7 -4,58 4,50 3,72 -5,72 -7,0 -14,-10 -16,-22 -24,-126 -38,-183 -52,-213 -20,-44 -27,-41 -14,6 12,42 13,169 1,169 -11,0 -21,-35 -21,-77 0,-46 -9,-66 -25,-53 -17,14 -33,-12 -85,-143 -23,-59 -45,-109 -49,-112 -4,-2 1,29 11,68 22,85 29,248 11,254 -7,3 -14,-13 -18,-44 -35,-263 -73,-390 -140,-468 -50,-59 -74,-72 -51,-27 23,44 74,215 82,269 4,33 2,53 -5,57 -14,9 -24,-16 -50,-129 -25,-106 -84,-233 -134,-291 -20,-22 -63,-55 -96,-73 -66,-35 -79,-47 -63,-63 15,-15 133,23 212,69 95,55 206,172 257,269 32,61 66,105 141,180 150,151 256,332 269,459 6,53 -5,76 -25,52 z"
       id="path224"
       style="fill:#000000;fill-opacity:1" />
    <path
       d="m 9961,5938 c -19,-52 -22,-68 -12,-68 10,0 41,62 41,81 0,18 -21,8 -29,-13 z"
       id="path225"
       style="fill:#000000;fill-opacity:1" />
    <path
       d="m 11155,5873 c -3,-21 -9,-48 -12,-60 -3,-13 -1,-23 5,-23 5,0 13,17 17,38 3,20 9,47 12,60 3,12 1,22 -5,22 -5,0 -13,-17 -17,-37 z"
       id="path226"
       style="fill:#000000;fill-opacity:1" />
    <path
       d="m 9325,5783 c -24,-67 -28,-96 -32,-208 -4,-146 5,-180 47,-180 23,0 25,4 23,40 -7,144 -2,280 11,346 9,41 16,75 16,77 0,1 -8,2 -18,2 -14,0 -25,-20 -47,-77 z"
       id="path227"
       style="fill:#000000;fill-opacity:1" />
    <path
       d="m 10877,5806 c -4,-10 -5,-21 -2,-24 9,-9 17,6 13,25 -3,17 -4,17 -11,-1 z"
       id="path228"
       style="fill:#000000;fill-opacity:1" />
    <path
       d="m 9405,5670 c -10,-61 -15,-113 -11,-117 13,-13 27,15 41,83 19,89 19,144 1,144 -9,0 -19,-32 -31,-110 z"
       id="path229"
       style="fill:#000000;fill-opacity:1" />
    <path
       d="m 10223,5672 c -12,-8 -143,-274 -157,-319 -4,-13 -3,-23 1,-23 10,0 131,210 163,284 21,47 18,73 -7,58 z"
       id="path230"
       style="fill:#000000;fill-opacity:1" />
    <path
       d="m 10757,5663 c -4,-3 -7,-20 -6,-37 l 1,-31 9,34 c 10,33 8,47 -4,34 z"
       id="path231"
       style="fill:#000000;fill-opacity:1" />
    <path
       d="m 10330,5366 c 0,-7 -2,-29 -5,-47 -4,-25 -3,-29 3,-14 17,37 23,75 12,75 -5,0 -10,-6 -10,-14 z"
       id="path232"
       style="fill:#000000;fill-opacity:1" />
    <path
       d="m 9651,5281 c -9,-16 -10,-26 -2,-34 13,-13 25,12 19,40 -3,16 -5,15 -17,-6 z"
       id="path233"
       style="fill:#000000;fill-opacity:1" />
    <path
       d="m 10291,5212 c -6,-11 -23,-53 -37,-94 -39,-110 -109,-240 -150,-279 l -37,-34 27,40 c 26,39 33,65 18,65 -4,0 -22,-24 -40,-54 -31,-53 -33,-54 -64,-46 -17,5 -41,19 -53,30 -12,11 -27,20 -33,20 -25,0 -10,-39 27,-73 108,-98 279,-35 424,156 79,103 107,160 107,218 0,41 -3,49 -19,49 -24,0 -29,-7 -85,-114 -50,-97 -112,-176 -179,-228 -36,-29 -40,-30 -24,-8 35,49 117,226 132,284 16,64 7,108 -14,68 z"
       id="path234"
       style="fill:#000000;fill-opacity:1" />
    <path
       d="m 9330,5169 c 0,-5 5,-7 10,-4 6,3 10,8 10,11 0,2 -4,4 -10,4 -5,0 -10,-5 -10,-11 z"
       id="path235"
       style="fill:#000000;fill-opacity:1" />
    <path
       d="m 10015,5115 c -25,-45 -13,-56 14,-12 23,37 25,47 13,47 -5,0 -17,-16 -27,-35 z"
       id="path236"
       style="fill:#000000;fill-opacity:1" />
    <path
       d="m 10181,4609 c -13,-39 -14,-49 -2,-49 5,0 12,11 15,24 3,13 9,31 12,40 3,9 2,16 -4,16 -6,0 -15,-14 -21,-31 z"
       id="path237"
       style="fill:#000000;fill-opacity:1" />
    <path
       d="m 9780,4535 c 0,-8 2,-15 4,-15 2,0 6,7 10,15 3,8 1,15 -4,15 -6,0 -10,-7 -10,-15 z"
       id="path238"
       style="fill:#000000;fill-opacity:1" />
    <path
       d="m 9867,4476 c -4,-10 -5,-21 -2,-24 9,-9 17,6 13,25 -3,17 -4,17 -11,-1 z"
       id="path239"
       style="fill:#000000;fill-opacity:1" />
    <path
       d="m 9035,3775 c -4,-11 -16,-40 -26,-64 -22,-50 -22,-51 -10,-51 13,0 53,99 48,118 -3,15 -5,14 -12,-3 z"
       id="path240"
       style="fill:#000000;fill-opacity:1" />
    <path
       d="m 9082,2961 c -7,-18 -7,-31 -2,-31 11,0 25,48 17,56 -2,3 -9,-9 -15,-25 z"
       id="path241"
       style="fill:#000000;fill-opacity:1" />
    <path
       d="m 5980,14540 c 0,-5 10,-10 23,-10 12,0 74,-4 137,-9 252,-21 295,-22 285,-12 -5,5 -105,17 -221,25 -250,19 -224,18 -224,6 z"
       id="path242"
       style="fill:#000000;fill-opacity:1" />
    <path
       d="m 6551,14486 c 5,-5 150,-33 214,-42 34,-4 47,-3 40,4 -5,6 -56,17 -111,26 -99,16 -152,20 -143,12 z"
       id="path243"
       style="fill:#000000;fill-opacity:1" />
    <path
       d="m 6198,14423 c 7,-3 16,-2 19,1 4,3 -2,6 -13,5 -11,0 -14,-3 -6,-6 z"
       id="path244"
       style="fill:#000000;fill-opacity:1" />
    <path
       d="m 6360,14412 c 8,-6 92,-17 185,-26 94,-9 211,-21 262,-26 118,-13 144,-13 122,0 -35,21 -601,72 -569,52 z"
       id="path245"
       style="fill:#000000;fill-opacity:1" />
    <path
       d="m 7210,13802 c 0,-13 44,-20 183,-28 79,-5 117,-4 117,4 0,11 -49,18 -197,28 -66,4 -103,3 -103,-4 z"
       id="path246"
       style="fill:#000000;fill-opacity:1" />
    <path
       d="m 6623,13333 c 9,-2 25,-2 35,0 9,3 1,5 -18,5 -19,0 -27,-2 -17,-5 z"
       id="path247"
       style="fill:#000000;fill-opacity:1" />
    <path
       d="m 9090,13302 c 0,-9 144,-42 183,-42 41,0 2,19 -60,29 -38,6 -80,14 -95,17 -16,3 -28,1 -28,-4 z"
       id="path248"
       style="fill:#000000;fill-opacity:1" />
    <path
       d="m 7070,13279 c 25,-4 92,-7 150,-7 84,0 96,2 60,9 -25,4 -92,7 -150,7 -84,0 -96,-2 -60,-9 z"
       id="path249"
       style="fill:#000000;fill-opacity:1" />
    <path
       d="m 9714,13216 c -4,-9 -5,-18 -3,-20 2,-2 72,-35 154,-74 83,-38 209,-100 280,-139 154,-82 162,-85 171,-71 19,30 -206,167 -414,254 -158,66 -180,71 -188,50 z"
       id="path250"
       style="fill:#000000;fill-opacity:1" />
    <path
       d="m 8940,13033 c 0,-16 415,-113 483,-113 69,0 2,20 -213,65 -124,25 -235,48 -247,52 -13,3 -23,1 -23,-4 z"
       id="path251"
       style="fill:#000000;fill-opacity:1" />
    <path
       d="m 10775,12915 c 16,-13 67,-46 113,-72 46,-26 109,-64 140,-84 70,-43 90,-51 97,-38 13,20 -62,71 -211,144 -85,41 -158,75 -162,75 -4,-1 6,-12 23,-25 z"
       id="path252"
       style="fill:#000000;fill-opacity:1" />
    <path
       d="m 7130,12814 -135,-23 90,5 c 88,6 233,29 243,39 11,10 -66,2 -198,-21 z"
       id="path253"
       style="fill:#000000;fill-opacity:1" />
    <path
       d="m 8864,12742 c 4,-8 76,-20 223,-38 24,-3 44,-1 48,6 3,5 3,10 -2,10 -4,0 -55,7 -113,15 -121,17 -163,18 -156,7 z"
       id="path254"
       style="fill:#000000;fill-opacity:1" />
    <path
       d="m 10910,12681 c 0,-15 60,-61 78,-61 11,0 4,12 -23,35 -41,35 -55,42 -55,26 z"
       id="path255"
       style="fill:#000000;fill-opacity:1" />
    <path
       d="m 9856,12671 c 11,-10 214,-44 222,-37 10,10 -2,14 -93,30 -102,18 -144,20 -129,7 z"
       id="path256"
       style="fill:#000000;fill-opacity:1" />
    <path
       d="m 11110,12627 c 0,-30 142,-128 274,-187 173,-79 97,16 -117,145 -83,50 -157,70 -157,42 z"
       id="path257"
       style="fill:#000000;fill-opacity:1" />
    <path
       d="m 9745,12504 c -72,-18 -54,-30 81,-53 60,-11 142,-25 181,-32 76,-14 99,-7 88,23 -12,31 -103,54 -240,62 -49,3 -99,3 -110,0 z"
       id="path258"
       style="fill:#000000;fill-opacity:1" />
    <path
       d="m 10200,12406 c 0,-18 166,-34 183,-17 17,17 -36,31 -114,31 -52,0 -69,-3 -69,-14 z"
       id="path259"
       style="fill:#000000;fill-opacity:1" />
    <path
       d="m 8472,12270 c -19,-4 -39,-13 -45,-20 -9,-10 -7,-11 13,-7 14,3 47,9 74,13 32,4 44,9 35,15 -16,10 -32,10 -77,-1 z"
       id="path260"
       style="fill:#000000;fill-opacity:1" />
    <path
       d="m 9002,12228 c -73,-17 -130,-33 -128,-36 11,-11 286,46 286,60 0,11 -10,10 -158,-24 z"
       id="path261"
       style="fill:#000000;fill-opacity:1" />
    <path
       d="m 9200,12110 c -12,-8 -10,-10 10,-10 14,0 32,5 40,10 12,8 10,10 -10,10 -14,0 -32,-5 -40,-10 z"
       id="path262"
       style="fill:#000000;fill-opacity:1" />
    <path
       d="m 10673,12058 c -35,-6 -53,-14 -53,-24 0,-10 7,-13 23,-9 12,3 42,9 66,13 25,4 46,13 49,20 4,14 -10,14 -85,0 z"
       id="path263"
       style="fill:#000000;fill-opacity:1" />
    <path
       d="m 9883,11979 c -18,-5 -33,-12 -33,-15 0,-8 91,6 110,17 21,12 -34,10 -77,-2 z"
       id="path264"
       style="fill:#000000;fill-opacity:1" />
    <path
       d="m 10121,8573 c -1,-6 -4,-20 -7,-30 -5,-17 -5,-17 6,0 6,10 9,23 6,30 -3,9 -5,9 -5,0 z"
       id="path265"
       style="fill:#000000;fill-opacity:1" />
    <path
       d="m 7385,6890 c -3,-5 -2,-10 4,-10 5,0 13,5 16,10 3,6 2,10 -4,10 -5,0 -13,-4 -16,-10 z"
       id="path271"
       style="fill:#000000;fill-opacity:1" />
  </g>
  <rect
     style="font-variation-settings:'wght' 590;opacity:0.75;fill:url(#linearGradient782);fill-opacity:1;stroke:#000000;stroke-width:0.826988;stroke-opacity:0"
     id="rect773"
     width="2000"
     height="2000"
     x="0"
     y="-5.6843419e-14" />
</svg>
